<?xml version="1.0" encoding="UTF-8"?>
<svg id="Layer_1" data-name="Layer 1" xmlns="http://www.w3.org/2000/svg" viewBox="0 0 509.12 316.14">
  <defs>
    <style>
      .Graphic_Style_7 {
        stroke: #8bc53f;
      }

      .Graphic_Style_7, .cls-1 {
        stroke-miterlimit: 10;
        stroke-width: 3px;
      }

      .cls-2 {
        fill: #f7ed45;
      }

      .cls-3, .cls-1 {
        fill: #fff;
      }

      .cls-4, .cls-5 {
        fill: #ed1c25;
      }

      .cls-6 {
        fill: #8ac440;
      }

      .cls-7 {
        fill: #82d2e1;
      }

      .cls-5 {
        stroke: #000;
        stroke-linecap: round;
        stroke-linejoin: round;
        stroke-width: 2px;
      }

      .cls-1 {
        stroke: #fff;
      }
    </style>
  </defs>
  <path class="Graphic_Style_7" d="m507.62,169.41c0-12.14-5.86-23.3-15.58-30.17v-20.04c0-8.49-6.91-15.4-15.4-15.4-.62,0-1.22.05-1.82.12-.87-2.01-2.07-3.87-3.55-5.52.41-.56.78-1.17,1.06-1.83,0-.02.01-.03.02-.05.93-2.26.93-4.75-.02-7.01-.94-2.26-2.71-4.01-4.97-4.94-.93-.38-1.92-.72-2.95-1.02.06-.44.11-.88.11-1.34,0-5.05-4.11-9.15-9.15-9.15-2.71,0-5.37.2-7.95.6-1.72-1.82-3.6-3.48-5.63-4.96-1.61-1.16-3.46-1.75-5.39-1.75-2.91,0-5.68,1.4-7.4,3.76-.29.4-.53.81-.75,1.24-.76-.2-1.54-.31-2.33-.31-3.79,0-7.13,2.28-8.52,5.8-.24.62-.41,1.25-.51,1.88-2.81.1-5.55.72-8.16,1.86-1.05.46-2.04,1-2.98,1.61,1.81-5.83,1.39-12.02-1.2-17.58-2.26-4.85-6.28-8.52-11.31-10.34-2.21-.8-4.51-1.2-6.83-1.2-2.94,0-5.78.64-8.47,1.89-4.09,1.91-7.19,5.3-8.73,9.55-1.29,3.57-1.31,7.53-.06,11.19.04.11.07.22.11.33-1.05-.81-2.1-1.7-3.13-2.67-1.69-1.58-3.32-3.13-4.89-4.64l-.15-.14c-.59-.56-1.17-1.12-1.75-1.68l1.29-1.15c3.76-3.37,4.08-9.16.72-12.92-1.22-1.38-2.84-2.34-4.63-2.78-.26-2.39-1.42-4.55-3.29-6.07-1.32-1.09-2.95-1.78-4.67-2-.59-2.25-2.03-4.28-4.18-5.56-1.39-.83-3.01-1.28-4.66-1.28-.07,0-.14.01-.21.01-.98-2.2-2.73-3.89-4.96-4.78-1.09-.44-2.23-.66-3.4-.66-.58,0-1.15.07-1.71.18-1.27-1.9-3.23-3.34-5.63-3.87-.65-.14-1.32-.22-1.98-.22-1.17,0-2.28.22-3.32.62-1.62-1.68-3.78-2.68-6.12-2.8-.08,0-.15,0-.23,0-.06,0-.15,0-.21,0-1.91,0-3.68.58-5.15,1.58-1.46-.97-3.21-1.54-5.08-1.54-.28,0-.57.01-.85.04-.06,0-.12.01-.18.02-2.17.25-4.07,1.25-5.48,2.7-1.1-.46-2.29-.72-3.53-.72-.86,0-1.71.12-2.53.36-2.9.85-5.05,2.99-6.03,5.61-.1-.08-.2-.17-.3-.25-9.08-7.53-15.64-12.98-19.33-23.91-1.34-3.93-5.01-6.57-9.15-6.57s-7.81,2.63-9.14,6.55c-3.69,10.95-10.25,16.39-19.33,23.92-.1.08-.2.17-.31.25-.98-2.62-3.11-4.76-5.98-5.6-.87-.25-1.72-.37-2.57-.37-1.23,0-2.42.25-3.52.71-1.46-1.5-3.38-2.45-5.49-2.7-.06,0-.12-.01-.18-.02-.28-.03-.57-.04-.85-.04-1.87,0-3.62.57-5.08,1.54-1.47-1-3.24-1.58-5.15-1.58-.06,0-.15,0-.21,0-.08,0-.15,0-.23,0-2.34.12-4.5,1.12-6.12,2.8-1.03-.4-2.15-.62-3.32-.62-.66,0-1.33.07-1.98.22-2.4.53-4.37,1.97-5.63,3.87-.56-.1-1.12-.18-1.71-.18-1.17,0-2.32.22-3.4.66-2.23.89-3.98,2.59-4.96,4.78-.07,0-.14-.01-.21-.01-1.65,0-3.27.45-4.68,1.29-2.06,1.22-3.55,3.19-4.17,5.54-1.71.22-3.35.91-4.69,2.02-1.84,1.51-3,3.66-3.26,6.05-1.78.44-3.41,1.4-4.64,2.8-1.62,1.82-2.43,4.15-2.3,6.58.13,2.44,1.21,4.69,3.04,6.32l1.29,1.15c-.58.56-1.16,1.12-1.75,1.68l-.55.52c-1.45,1.39-2.95,2.81-4.49,4.26-1.03.97-2.08,1.86-3.13,2.67.04-.11.08-.22.11-.33,1.25-3.66,1.23-7.62-.06-11.19-1.54-4.24-4.64-7.63-8.73-9.54-2.68-1.25-5.53-1.89-8.46-1.89-2.33,0-4.63.41-6.83,1.2-5.03,1.82-9.05,5.49-11.31,10.34-2.6,5.56-3.01,11.76-1.2,17.58-.94-.62-1.94-1.16-2.99-1.61-2.6-1.14-5.34-1.76-8.15-1.86-.1-.63-.27-1.26-.51-1.87-1.38-3.52-4.72-5.8-8.52-5.8h0c-.79,0-1.57.11-2.33.31-.22-.42-.46-.84-.75-1.24-1.73-2.36-4.49-3.76-7.4-3.76,0,0,0,0,0,0-1.93,0-3.78.6-5.35,1.72-2.06,1.5-3.95,3.16-5.67,4.99-2.58-.4-5.24-.6-7.94-.6-5.05,0-9.15,4.11-9.15,9.15,0,.46.04.9.11,1.34-1.03.29-2.03.63-2.97,1.02-2.26.93-4.02,2.69-4.96,4.95-.94,2.26-.94,4.75,0,7.01.28.68.66,1.3,1.08,1.87-1.47,1.65-2.67,3.51-3.55,5.52-.6-.07-1.2-.12-1.82-.12-8.49,0-15.4,6.91-15.4,15.4v20.04c-9.72,6.87-15.58,18.02-15.58,30.17s5.86,23.25,15.59,30.14c0,1.45,0,3.1,0,4.98v15.09c0,8.49,6.91,15.41,15.4,15.41.61,0,1.22-.05,1.81-.12.88,2.01,2.07,3.87,3.55,5.52-.42.57-.79,1.19-1.07,1.86-1.93,4.65.29,10.01,4.93,11.95.95.39,1.95.73,3,1.03-.06.44-.11.88-.11,1.34,0,5.05,4.11,9.15,9.15,9.15,2.71,0,5.37-.2,7.95-.6,1.72,1.82,3.6,3.48,5.63,4.96,1.61,1.15,3.46,1.75,5.39,1.75,2.92,0,5.68-1.41,7.4-3.76.29-.4.53-.81.74-1.24.76.2,1.54.31,2.33.31,3.8,0,7.15-2.28,8.53-5.81.24-.61.4-1.24.51-1.86,2.81-.1,5.55-.72,8.15-1.86,1.05-.46,2.04-1,2.98-1.61-1.81,5.82-1.4,12.02,1.2,17.58,2.26,4.84,6.28,8.52,11.31,10.34,2.21.8,4.51,1.2,6.83,1.2,2.93,0,5.78-.63,8.46-1.89,4.09-1.91,7.19-5.3,8.73-9.54,1.31-3.62,1.33-7.49.06-11.19-.04-.11-.07-.22-.11-.33,1.05.81,2.1,1.7,3.13,2.67,1.55,1.45,3.04,2.88,4.5,4.26l.55.52c.58.55,1.16,1.12,1.74,1.68l-1.28,1.15c-1.82,1.63-2.9,3.88-3.04,6.32-.13,2.44.69,4.79,2.33,6.62,1.23,1.37,2.85,2.32,4.61,2.76.26,2.39,1.42,4.54,3.28,6.07,1.34,1.1,2.97,1.79,4.68,2.01.58,2.23,2,4.25,4.12,5.52,1.42.86,3.05,1.31,4.72,1.31.07,0,.14-.01.22-.01.94,2.12,2.67,3.88,4.99,4.8.02,0,.05.02.07.03,1.06.41,2.17.61,3.29.61.58,0,1.14-.07,1.7-.17,1.32,1.99,3.32,3.36,5.65,3.88.65.14,1.31.21,1.97.21,1.16,0,2.28-.23,3.31-.64,1.64,1.7,3.83,2.71,6.22,2.82.12,0,.25,0,.38,0,1.89,0,3.66-.58,5.12-1.57,1.45.96,3.19,1.53,5.05,1.53.28,0,.56-.01.85-.04,2.2-.23,4.18-1.19,5.69-2.72,1.1.47,2.29.72,3.53.72.82,0,1.65-.11,2.45-.33.04-.01.08-.02.13-.04,2.05-.6,3.72-1.87,4.87-3.49.64.14,1.3.24,1.98.24,1.38,0,2.76-.32,3.99-.92,2.09-1.01,3.61-2.72,4.44-4.72.33.04.66.06.99.06,1.89,0,3.71-.57,5.26-1.66.02-.02.05-.03.07-.05.85-.61,1.57-1.36,2.16-2.19.68,1.42,1.3,2.94,1.86,4.58,1.34,3.92,5.01,6.54,9.14,6.54s7.8-2.63,9.14-6.53c.56-1.65,1.18-3.17,1.86-4.59.58.83,1.29,1.58,2.16,2.2.02.01.04.03.06.04,1.55,1.09,3.37,1.67,5.27,1.67.33,0,.66-.02.99-.06.86,2.08,2.43,3.75,4.47,4.73,1.2.58,2.59.9,3.97.9.67,0,1.33-.1,1.97-.24,1.15,1.62,2.83,2.89,4.88,3.49.04.01.08.02.12.04.8.22,1.63.33,2.45.33,1.25,0,2.45-.25,3.55-.71,1.5,1.52,3.48,2.47,5.67,2.7.28.03.56.04.84.04,1.86,0,3.6-.56,5.05-1.53,1.46.99,3.22,1.57,5.12,1.57.12,0,.25,0,.37,0,2.39-.11,4.58-1.12,6.22-2.82,1.04.41,2.15.64,3.31.64.65,0,1.31-.07,1.95-.21,2.36-.52,4.35-1.9,5.67-3.88.55.1,1.12.17,1.7.17,1.13,0,2.25-.21,3.31-.62.02,0,.04-.01.06-.02,2.25-.89,4.02-2.59,5-4.8.07,0,.14.01.21.01,1.67,0,3.3-.45,4.72-1.31,2.12-1.28,3.54-3.29,4.13-5.53,1.72-.22,3.35-.91,4.69-2.01,1.86-1.53,3.01-3.68,3.27-6.07,1.77-.44,3.39-1.39,4.62-2.77,1.63-1.82,2.46-4.17,2.32-6.62-.14-2.43-1.21-4.67-3.03-6.3l-1.28-1.14c.58-.56,1.17-1.13,1.76-1.69l.73-.7c1.39-1.33,2.82-2.69,4.3-4.07,1.04-.97,2.09-1.87,3.14-2.68-.04.11-.08.22-.11.33-1.27,3.7-1.25,7.57.06,11.19,1.53,4.24,4.63,7.63,8.72,9.54,2.69,1.25,5.54,1.89,8.47,1.89,2.33,0,4.63-.41,6.83-1.2,5.04-1.83,9.05-5.5,11.31-10.35,2.6-5.55,3.01-11.75,1.2-17.58.94.61,1.93,1.15,2.98,1.61,2.6,1.14,5.34,1.76,8.15,1.86.1.62.27,1.24.5,1.85,1.4,3.55,4.74,5.82,8.53,5.82.79,0,1.57-.11,2.33-.31.21.42.45.83.73,1.22,1.73,2.37,4.49,3.78,7.41,3.78,1.93,0,3.78-.6,5.35-1.73,2.05-1.49,3.95-3.16,5.67-4.98,2.58.4,5.24.6,7.95.6,5.05,0,9.15-4.11,9.15-9.15,0-.46-.04-.9-.11-1.34,1.03-.29,2.03-.63,2.97-1.02,4.67-1.95,6.89-7.31,4.97-11.95-.28-.68-.66-1.3-1.08-1.87,1.47-1.65,2.67-3.51,3.55-5.52.59.07,1.18.11,1.79.11,8.49,0,15.4-6.91,15.4-15.41v-14.99s0-.14,0-.14c0-1.86,0-3.5,0-4.94,9.72-6.9,15.59-18.05,15.59-30.14Z"/>
  <path class="cls-2" d="m367.34,110.33c1.39,0,2.77.57,3.76,1.61,2.18,2.32,4.05,4.21,5.73,5.78,11.03,10.32,19.31,15.56,34,15.56,9.8,0,18.66-3.69,27.1-11.27.96-.86,2.2-1.32,3.46-1.32.5,0,1,.07,1.48.22,1.72.52,3.07,1.93,3.5,3.68.13.5.3,1.02.51,1.53,1.15,2.8,3.32,4.98,6.12,6.14,1.64.68,3.36,1.03,5.08,1.03s3.41-.33,5.03-1c3.26-1.34,5.8-3.88,7.16-7.14.8-1.91,1.2-3.91,1.2-5.96,0-2.84,2.31-5.15,5.15-5.15s5.15,2.31,5.15,5.15v25.92c9.43,4.31,15.58,13.73,15.58,24.29s-6.29,20.01-15.63,24.31c.04,2.37.04,5.81.04,10.92v14.99c0,2.84-2.31,5.16-5.15,5.16s-5.15-2.31-5.15-5.15c0-2.05-.4-4.05-1.2-5.95-1.36-3.27-3.9-5.81-7.16-7.15-1.62-.67-3.31-1-5.02-1s-3.45.34-5.1,1.03c-2.79,1.16-4.96,3.34-6.11,6.14-.21.51-.38,1.03-.52,1.55-.43,1.71-1.75,3.11-3.44,3.64-.51.16-1.03.24-1.55.24-1.24,0-2.46-.45-3.42-1.3-8.46-7.61-17.33-11.29-27.13-11.29-14.69,0-22.97,5.24-34,15.56-1.66,1.55-3.58,3.48-5.72,5.76-.99,1.04-2.35,1.63-3.76,1.63-.53,0-1.05-.08-1.55-.24-1.85-.57-3.22-2.14-3.53-4.09-.24-1.46-.57-2.88-.98-4.21-2.69-8.62-10.56-14.41-19.59-14.41-2.04,0-4.09.31-6.09.93-3.36,1.05-6.2,3.13-8.22,6.02-.86,1.21-2.17,1.99-3.61,2.17-.04,0-.07,0-.11.01-.16.02-.32.02-.49.02-1.25,0-2.46-.45-3.4-1.25-.31-.27-.62-.53-.93-.78-1.79-1.42-3.72-2.66-5.76-3.68-4.5-2.26-9.42-3.41-14.59-3.41-5.54,0-24.75-.01-43.95-.01s-38.4,0-43.95.01c-5.18,0-10.09,1.16-14.61,3.42-2.03,1.02-3.96,2.25-5.72,3.66-.35.27-.65.53-.94.78-.95.82-2.17,1.27-3.41,1.27-.16,0-.32,0-.48-.02-.04,0-.07,0-.11-.01-1.45-.17-2.76-.96-3.6-2.16-2.02-2.9-4.87-4.98-8.23-6.03-1.99-.62-4.04-.93-6.08-.93-9.03,0-16.91,5.79-19.59,14.41-.42,1.33-.75,2.74-.98,4.21-.31,1.94-1.68,3.52-3.57,4.1-.47.15-.99.23-1.52.23-1.41,0-2.77-.59-3.74-1.61-2.15-2.29-4.07-4.23-5.73-5.77-11.03-10.33-19.32-15.57-34-15.57-9.8,0-18.67,3.69-27.1,11.27-.97.87-2.21,1.32-3.45,1.32-.52,0-1.03-.08-1.54-.24-1.7-.53-3.02-1.92-3.45-3.65-.13-.52-.3-1.04-.51-1.53-1.16-2.81-3.33-5-6.12-6.16-1.65-.68-3.37-1.03-5.09-1.03s-3.4.33-5.01,1c-3.27,1.35-5.81,3.88-7.17,7.14-.8,1.9-1.2,3.91-1.2,5.96,0,2.84-2.31,5.15-5.15,5.15s-5.15-2.31-5.15-5.15v-15.03c0-5.08,0-8.52.05-10.88-9.33-4.3-15.63-13.89-15.63-24.3s6.15-19.98,15.58-24.29v-25.92c0-2.84,2.31-5.15,5.15-5.15s5.15,2.31,5.15,5.15c0,2.05.4,4.06,1.2,5.95,1.36,3.26,3.9,5.8,7.17,7.15,1.62.67,3.33,1,5.03,1s3.44-.34,5.07-1.02c2.8-1.16,4.97-3.35,6.12-6.15.21-.5.38-1.03.51-1.55.44-1.73,1.78-3.14,3.5-3.66.48-.15.98-.22,1.48-.22,1.26,0,2.51.46,3.46,1.32,8.43,7.58,17.3,11.27,27.1,11.27,14.69,0,22.97-5.24,34-15.56,1.68-1.58,3.55-3.46,5.72-5.76,1-1.05,2.38-1.62,3.77-1.62.51,0,1.02.08,1.52.23,1.82.55,3.23,2.16,3.55,4.09.24,1.47.57,2.89.98,4.22,2.69,8.62,10.56,14.41,19.59,14.41,2.06,0,4.1-.31,6.08-.93,3.36-1.05,6.21-3.13,8.22-6.02.84-1.2,2.15-1.99,3.6-2.17.22-.03.44-.05.67-.05,1.19,0,2.4.45,3.36,1.28,1.96,1.71,4.2,3.2,6.66,4.43,4.52,2.26,9.43,3.41,14.6,3.42,5.55,0,24.75.01,43.95.01s38.4,0,43.95-.01c5.17,0,10.09-1.16,14.6-3.42,2.47-1.23,4.71-2.73,6.67-4.44.93-.82,2.13-1.27,3.36-1.27.24,0,.49.02.74.05,1.36.17,2.67.95,3.51,2.14,2.03,2.9,4.87,4.99,8.23,6.03,1.98.62,4.03.93,6.08.93,9.03,0,16.9-5.79,19.59-14.41.42-1.33.75-2.75.98-4.21.31-1.93,1.72-3.54,3.59-4.11.48-.15.98-.22,1.48-.22m0-2.25h0c-.73,0-1.46.11-2.15.32-2.66.8-4.69,3.12-5.14,5.89-.22,1.36-.53,2.68-.91,3.9-2.39,7.68-9.41,12.83-17.45,12.83-1.83,0-3.65-.28-5.41-.83-2.88-.9-5.32-2.69-7.06-5.17-1.21-1.72-3.06-2.84-5.08-3.09-.3-.04-.66-.07-1.01-.07-1.79,0-3.51.65-4.85,1.84-1.81,1.58-3.9,2.97-6.19,4.12-4.2,2.1-8.78,3.17-13.6,3.18-5.07,0-22.32.01-43.94.01s-38.87,0-43.94-.01c-4.82,0-9.4-1.08-13.6-3.18-2.29-1.15-4.37-2.53-6.19-4.12-1.35-1.18-3.07-1.84-4.84-1.84-.33,0-.66.02-.99.07-2.04.25-3.92,1.38-5.12,3.11-1.73,2.48-4.17,4.26-7.05,5.16-1.76.55-3.58.83-5.41.83-8.04,0-15.05-5.16-17.45-12.83-.38-1.23-.69-2.54-.91-3.91-.45-2.77-2.46-5.08-5.12-5.88-.68-.22-1.42-.33-2.17-.33-2.03,0-4,.85-5.41,2.32-2.14,2.28-3.98,4.13-5.62,5.67-10.82,10.13-18.44,14.95-32.46,14.95-9.22,0-17.59-3.5-25.6-10.69-1.36-1.22-3.12-1.9-4.97-1.9-.72,0-1.44.11-2.13.31-2.48.75-4.4,2.77-5.03,5.27-.11.41-.24.83-.41,1.24-.92,2.24-2.66,3.99-4.91,4.92-1.35.56-2.77.85-4.21.85s-2.83-.28-4.17-.83c-2.71-1.12-4.82-3.22-5.94-5.93-.68-1.62-1.02-3.33-1.02-5.09,0-4.08-3.32-7.4-7.4-7.4s-7.4,3.32-7.4,7.4v24.52c-9.51,4.95-15.58,14.88-15.58,25.7s6.08,20.7,15.61,25.7c-.02,2.26-.02,5.27-.03,9.43v15.08c0,4.08,3.32,7.4,7.4,7.4s7.4-3.32,7.4-7.4c0-1.75.34-3.46,1.02-5.09,1.13-2.71,3.24-4.81,5.95-5.93,1.33-.55,2.73-.83,4.15-.83s2.87.29,4.23.85c2.24.93,3.98,2.68,4.9,4.94.16.4.3.81.41,1.23.62,2.47,2.53,4.48,4.96,5.24.7.23,1.45.34,2.21.34,1.82,0,3.58-.67,4.95-1.89,8.02-7.2,16.39-10.7,25.61-10.7,14.02,0,21.64,4.82,32.47,14.96,1.62,1.51,3.51,3.42,5.62,5.67,1.4,1.48,3.36,2.32,5.39,2.32.75,0,1.51-.12,2.2-.34,2.7-.83,4.67-3.09,5.11-5.89.22-1.36.53-2.67.91-3.89,2.39-7.68,9.4-12.84,17.45-12.84,1.82,0,3.64.28,5.42.83,2.88.9,5.32,2.69,7.05,5.17,1.21,1.72,3.1,2.85,5.18,3.1h.08s.05.01.05.01c.27.02.5.04.73.04,1.79,0,3.52-.64,4.88-1.81.32-.28.58-.49.86-.71,1.66-1.32,3.46-2.47,5.36-3.43,4.2-2.1,8.77-3.17,13.6-3.18,6.14,0,27.51-.01,43.94-.01s37.81,0,43.94.01c4.83,0,9.4,1.07,13.59,3.17,1.89.96,3.7,2.11,5.37,3.43.3.23.57.46.85.71,1.35,1.17,3.08,1.81,4.88,1.81.23,0,.46-.01.7-.03h.14c2.1-.27,3.99-1.4,5.21-3.12,1.74-2.49,4.17-4.27,7.05-5.17,1.78-.55,3.6-.83,5.42-.83,8.04,0,15.05,5.16,17.45,12.83.38,1.23.69,2.54.91,3.9.45,2.8,2.4,5.05,5.09,5.88.7.22,1.46.34,2.22.34,2.02,0,3.99-.85,5.39-2.33,2.11-2.25,4-4.16,5.62-5.67,10.83-10.13,18.44-14.96,32.46-14.96,9.22,0,17.6,3.51,25.62,10.72,1.37,1.21,3.12,1.88,4.93,1.88.76,0,1.52-.12,2.24-.35,2.42-.76,4.32-2.77,4.93-5.24.1-.4.24-.82.41-1.23.92-2.25,2.66-4,4.9-4.93,1.36-.57,2.79-.85,4.23-.85s2.82.28,4.15.83c2.71,1.11,4.82,3.22,5.95,5.93.68,1.62,1.02,3.33,1.02,5.08,0,4.08,3.32,7.4,7.4,7.4s7.4-3.32,7.4-7.41v-14.99s0-.14,0-.14c0-4.14,0-7.14-.03-9.39,9.53-4.99,15.61-14.92,15.61-25.7s-6.07-20.75-15.58-25.7v-24.52c0-4.08-3.32-7.4-7.4-7.4s-7.4,3.32-7.4,7.4c0,1.75-.35,3.47-1.03,5.09-1.13,2.71-3.23,4.81-5.94,5.93-1.34.55-2.75.83-4.17.83s-2.86-.29-4.21-.85c-2.24-.93-3.98-2.68-4.9-4.92-.17-.41-.31-.83-.41-1.23-.63-2.51-2.55-4.53-5.03-5.28-.69-.21-1.41-.32-2.13-.32-1.84,0-3.6.67-4.96,1.89-8.01,7.2-16.38,10.7-25.6,10.7-14.02,0-21.64-4.82-32.46-14.96-1.64-1.53-3.48-3.39-5.63-5.67-1.4-1.48-3.37-2.32-5.4-2.32h0Z"/>
  <g>
    <path class="cls-3" d="m354.54,280.47c-.27,0-.55-.1-.77-.29l-2.97-2.66c-.47-.42-.52-1.15-.09-1.63.43-.47,1.16-.52,1.63-.09l2.97,2.66c.47.42.52,1.15.09,1.63-.23.25-.54.38-.86.38Z"/>
    <path class="cls-3" d="m347.64,288.35c-.33,0-.66-.14-.89-.42l-3.11-3.78c-.41-.49-.34-1.22.16-1.62.49-.41,1.22-.34,1.62.16l3.11,3.78c.41.49.34,1.22-.16,1.62-.21.18-.47.26-.73.26Z"/>
    <path class="cls-3" d="m339.93,295.1c-.39,0-.78-.2-.99-.56l-3.05-5.15c-.32-.55-.14-1.26.4-1.58.54-.33,1.25-.14,1.58.4l3.05,5.15c.32.55.14,1.25-.4,1.58-.18.11-.39.16-.59.16Z"/>
    <path class="cls-3" d="m331.36,300.53c-.46,0-.89-.28-1.07-.73l-2.61-6.58c-.24-.59.05-1.26.65-1.5.59-.23,1.26.05,1.5.65l2.6,6.57c.24.59-.05,1.26-.65,1.5-.14.05-.28.08-.42.08Z"/>
    <path class="cls-3" d="m322.04,304.44c-.53,0-1.01-.37-1.13-.91l-1.74-7.9c-.14-.62.26-1.23.88-1.37.64-.14,1.24.26,1.38.88l1.74,7.9c.14.62-.26,1.24-.88,1.37-.08.02-.17.03-.25.03Z"/>
    <path class="cls-3" d="m312.13,306.64c-.61,0-1.12-.48-1.15-1.09l-.46-8.93c-.03-.64.46-1.18,1.09-1.21.74-.08,1.18.46,1.21,1.09l.46,8.93c.03.64-.46,1.18-1.15,1.21Z"/>
    <path class="cls-3" d="m301.96,306.59c-.77-.08-1.22-.66-1.15-1.29l1.06-9.16c.07-.63.61-1.1,1.28-1.01.63.07,1.09.64,1.01,1.28l-1.06,9.16c-.07.59-.57,1.02-1.14,1.02Z"/>
    <path class="cls-3" d="m291.9,304.55c-.11,0-.22-.02-.32-.05-.61-.18-.96-.82-.78-1.43l2.59-8.85c.18-.61.83-.96,1.43-.78.61.18.96.82.79,1.43l-2.59,8.85c-.15.5-.61.83-1.11.83Z"/>
    <path class="cls-3" d="m282.47,300.94c-.17,0-.34-.04-.5-.11-.58-.28-.82-.96-.54-1.54l4-8.32c.28-.57.97-.81,1.54-.54s.81.96.54,1.54l-4,8.32c-.2.41-.61.65-1.04.65Z"/>
    <path class="cls-3" d="m273.05,295.36c-.24,0-.47-.07-.67-.21-.52-.37-.64-1.09-.27-1.61l5.37-7.52c.37-.52,1.09-.64,1.61-.27.52.37.64,1.09.27,1.61l-5.37,7.52c-.23.32-.58.48-.94.48Z"/>
    <path class="cls-3" d="m154.58,280.47c.27,0,.55-.1.77-.29l2.97-2.66c.47-.42.52-1.15.09-1.63-.43-.47-1.16-.52-1.63-.09l-2.97,2.66c-.47.42-.52,1.15-.09,1.63.23.25.54.38.86.38Z"/>
    <path class="cls-3" d="m161.48,288.35c.33,0,.66-.14.89-.42l3.11-3.78c.41-.49.34-1.22-.16-1.62-.49-.41-1.22-.34-1.62.16l-3.11,3.78c-.41.49-.34,1.22.16,1.62.21.18.47.26.73.26Z"/>
    <path class="cls-3" d="m169.19,295.1c.39,0,.78-.2.99-.56l3.05-5.15c.32-.55.14-1.26-.4-1.58-.54-.33-1.25-.14-1.58.4l-3.05,5.15c-.32.55-.14,1.25.4,1.58.18.11.39.16.59.16Z"/>
    <path class="cls-3" d="m177.76,300.53c.46,0,.89-.28,1.07-.73l2.61-6.58c.23-.59-.05-1.26-.65-1.5-.59-.23-1.26.05-1.49.65l-2.61,6.57c-.23.59.05,1.26.65,1.5.14.05.28.08.42.08Z"/>
    <path class="cls-3" d="m187.08,304.44c.53,0,1.01-.37,1.13-.91l1.74-7.9c.14-.62-.25-1.23-.88-1.37-.64-.14-1.24.26-1.37.88l-1.74,7.9c-.14.62.26,1.24.88,1.37.08.02.16.03.25.03Z"/>
    <path class="cls-3" d="m196.99,306.64c.61,0,1.12-.48,1.15-1.09l.46-8.93c.03-.64-.46-1.18-1.09-1.21-.74-.08-1.18.46-1.21,1.09l-.46,8.93c-.03.64.46,1.18,1.15,1.21Z"/>
    <path class="cls-3" d="m207.16,306.59c.77-.08,1.22-.66,1.14-1.29l-1.06-9.16c-.07-.63-.61-1.1-1.28-1.01-.63.07-1.09.64-1.01,1.28l1.06,9.16c.07.59.56,1.02,1.14,1.02Z"/>
    <path class="cls-3" d="m217.22,304.55c.11,0,.22-.02.32-.05.61-.18.96-.82.78-1.43l-2.59-8.85c-.18-.61-.83-.96-1.43-.78-.61.18-.96.82-.78,1.43l2.59,8.85c.15.5.61.83,1.11.83Z"/>
    <path class="cls-3" d="m226.65,300.94c.17,0,.34-.04.5-.11.57-.28.81-.96.54-1.54l-4-8.32c-.28-.57-.97-.81-1.54-.54s-.81.96-.54,1.54l4,8.32c.2.41.61.65,1.04.65Z"/>
    <path class="cls-3" d="m236.07,295.36c.23,0,.46-.07.67-.21.52-.37.64-1.09.27-1.61l-5.37-7.52c-.37-.52-1.09-.64-1.61-.27-.52.37-.64,1.09-.27,1.61l5.37,7.52c.22.32.58.48.94.48Z"/>
  </g>
  <path class="cls-6" d="m255.22,251.54c-.17-.21-.42-.34-.69-.34,0,0,0,0-.01,0-.27,0-.53.14-.69.36-2.98,4.12-4.47,8.72-4.19,12.94.21,3.64,1.66,7.35,4.29,11.03.16.23.43.36.71.36,0,0,.01,0,.02,0,.29,0,.55-.15.71-.39,3.03-4.62,4.42-8.84,4.26-12.91-.11-3.65-1.63-7.48-4.4-11.06Z"/>
  <g>
    <path class="cls-3" d="m309.05,279.34c10.64,0,21.31-4.92,29.67-14.24.42-.47.38-1.2-.09-1.63-.47-.43-1.2-.39-1.63.09-11.9,13.27-28.73,17.11-42.88,9.79-.57-.29-1.26-.07-1.55.5-.29.56-.07,1.26.5,1.55,5.11,2.65,10.54,3.93,15.99,3.93Z"/>
    <path class="cls-3" d="m280.12,262.2c.16,0,.33-.04.49-.11.58-.27.82-.96.55-1.54-2.79-5.92-3.23-12.59-1.21-18.76.25-.77.54-1.53.86-2.28.87-2,2.02-3.9,3.4-5.64.41-.53,1.95-2.19,2.96-2.82.54-.34.7-1.05.36-1.59-.34-.54-1.05-.7-1.59-.36-1.37.87-3.07,2.75-3.53,3.34-1.51,1.89-2.76,3.97-3.71,6.16-.36.82-.67,1.65-.94,2.49-2.19,6.72-1.72,13.99,1.33,20.45.19.42.61.66,1.04.66Z"/>
    <path class="cls-3" d="m401.31,225.99c.48,0,.93.31,1.09.79.2.61-.12,1.26-.73,1.46-4.28,1.44-8.47,4.35-14.93,10.4l-1.02.98c-.46.45-1.19.43-1.63-.02-.45-.46-.43-1.18.02-1.63l1.06-1.01c6.73-6.3,11.16-9.36,15.78-10.9.12-.04.24-.06.37-.06Z"/>
    <path class="cls-3" d="m200.09,279.34c-10.64,0-21.31-4.92-29.67-14.24-.42-.47-.39-1.2.09-1.63.47-.43,1.2-.39,1.63.09,11.9,13.27,28.73,17.11,42.88,9.79.57-.29,1.26-.07,1.55.5.29.56.07,1.26-.5,1.55-5.11,2.65-10.55,3.93-15.99,3.93Z"/>
    <path class="cls-3" d="m229.03,262.2c-.16,0-.33-.04-.49-.11-.58-.27-.82-.96-.55-1.54,2.79-5.92,3.23-12.59,1.22-18.76-.25-.77-.54-1.53-.86-2.28-.87-2-2.02-3.9-3.41-5.64-.41-.53-1.95-2.19-2.96-2.82-.54-.34-.7-1.05-.36-1.59.34-.54,1.05-.7,1.59-.36,1.37.87,3.07,2.75,3.53,3.34,1.51,1.89,2.76,3.97,3.71,6.16.35.82.67,1.65.94,2.49,2.19,6.72,1.72,13.99-1.33,20.45-.19.42-.61.66-1.04.66Z"/>
    <path class="cls-3" d="m107.84,225.99c-.48,0-.93.31-1.09.79-.2.61.12,1.26.73,1.46,4.28,1.44,8.47,4.35,14.93,10.4l1.03.98c.46.45,1.19.43,1.63-.02.44-.46.43-1.18-.02-1.63l-1.06-1.01c-6.73-6.3-11.16-9.36-15.78-10.9-.12-.04-.24-.06-.37-.06Z"/>
    <path class="cls-3" d="m342.27,80.72c.26,0,.53-.09.75-.28.48-.41.54-1.14.12-1.62-1.63-1.9-3.14-3.64-4.46-5.11-8.47-9.45-19.34-14.52-30.52-14.22-.64.02-1.14.54-1.12,1.18.02.64.49,1.19,1.18,1.12,10.52-.32,20.73,4.51,28.75,13.46,1.31,1.46,2.81,3.18,4.43,5.07.23.27.55.4.88.4Z"/>
    <path class="cls-3" d="m401.28,112.82c.48,0,.93-.3,1.09-.79.2-.6-.12-1.26-.73-1.46-4.28-1.43-8.47-4.35-14.93-10.4l-1.03-.98c-.46-.45-1.18-.43-1.63.02-.44.46-.43,1.19.02,1.63l1.06,1.01c6.73,6.3,11.16,9.36,15.78,10.91.12.04.24.06.37.06Z"/>
    <path class="cls-3" d="m277.55,89.06c.61,0,1.12-.48,1.15-1.1.35-7.36,3.84-14.19,9.57-18.74.9-.72,1.83-1.38,2.76-2,.53-.35.68-1.06.33-1.6-.35-.54-1.08-.68-1.59-.33-1,.65-1.98,1.36-2.94,2.12-6.25,4.96-10.05,12.41-10.44,20.44-.03.64.46,1.18,1.15,1.21Z"/>
    <path class="cls-3" d="m166.84,80.72c-.27,0-.53-.09-.75-.28-.48-.41-.54-1.14-.12-1.62,1.63-1.9,3.14-3.64,4.46-5.11,8.48-9.45,19.34-14.52,30.52-14.22.64.02,1.14.54,1.12,1.18-.02.64-.49,1.19-1.18,1.12-10.52-.32-20.73,4.51-28.75,13.46-1.31,1.46-2.81,3.18-4.43,5.07-.23.27-.55.4-.87.4Z"/>
    <path class="cls-3" d="m107.84,112.82c-.48,0-.93-.3-1.09-.79-.2-.6.12-1.26.73-1.46,4.28-1.43,8.47-4.35,14.93-10.4l1.03-.98c.46-.45,1.19-.43,1.63.02.44.46.43,1.19-.02,1.63l-1.06,1.01c-6.73,6.3-11.16,9.36-15.78,10.91-.12.04-.24.06-.37.06Z"/>
    <path class="cls-3" d="m231.56,89.06c-.61,0-1.12-.48-1.15-1.1-.35-7.36-3.84-14.19-9.57-18.74-.9-.72-1.83-1.38-2.76-2-.53-.35-.68-1.06-.33-1.6.35-.54,1.07-.68,1.59-.33,1,.65,1.98,1.36,2.94,2.12,6.25,4.96,10.05,12.41,10.44,20.44.03.64-.46,1.18-1.15,1.21Z"/>
    <g>
      <path class="cls-3" d="m351.56,63.3c.27,0,.55-.1.77-.29l2.97-2.66c.47-.42.51-1.15.09-1.63-.42-.48-1.16-.51-1.63-.09l-2.97,2.66c-.47.43-.52,1.15-.09,1.63.22.26.54.38.86.38Z"/>
      <path class="cls-3" d="m344.53,56.54c.33,0,.66-.14.89-.42l3.11-3.78c.41-.49.34-1.22-.16-1.62-.49-.41-1.22-.34-1.63.16l-3.11,3.78c-.4.49-.33,1.22.16,1.62.21.18.47.26.73.26Z"/>
      <path class="cls-3" d="m336.87,51.16c.39,0,.78-.2.99-.56l3.05-5.15c.32-.55.14-1.26-.4-1.58-.54-.33-1.25-.14-1.58.4l-3.05,5.15c-.33.55-.15,1.25.4,1.58.18.11.39.16.59.16Z"/>
      <path class="cls-3" d="m328.75,47.16c.46,0,.89-.28,1.07-.73l2.6-6.57c.24-.59-.06-1.26-.65-1.5-.59-.24-1.26.05-1.49.65l-2.61,6.57c-.24.59.05,1.26.64,1.5.14.05.29.08.43.08Z"/>
      <path class="cls-3" d="m320.3,44.57c.53,0,1.01-.37,1.13-.91l1.74-7.9c.13-.62-.26-1.24-.88-1.37-.62-.14-1.23.25-1.37.88l-1.74,7.9c-.14.62.26,1.24.88,1.37.08.02.17.03.25.03Z"/>
      <path class="cls-3" d="m311.67,43.41c.61,0,1.12-.48,1.15-1.09l.46-8.93c.03-.63-.46-1.18-1.09-1.21-.6-.01-1.18.46-1.21,1.09l-.46,8.93c-.03.63.46,1.18,1.15,1.21Z"/>
      <path class="cls-3" d="m303.02,43.69c.77-.08,1.22-.65,1.15-1.29l-1.06-9.17c-.07-.63-.66-1.07-1.28-1.01-.63.07-1.09.65-1.01,1.28l1.06,9.16c.07.59.57,1.02,1.14,1.02Z"/>
      <path class="cls-3" d="m294.49,45.42c.1,0,.22-.01.32-.05.61-.18.96-.82.78-1.43l-2.59-8.85c-.18-.61-.83-.96-1.43-.78-.61.18-.96.82-.78,1.43l2.59,8.85c.15.5.6.83,1.11.83Z"/>
      <path class="cls-3" d="m157.55,63.3c-.28,0-.55-.1-.77-.29l-2.97-2.66c-.47-.42-.51-1.15-.09-1.63.42-.48,1.15-.51,1.63-.09l2.97,2.66c.47.43.51,1.15.09,1.63-.23.26-.54.38-.86.38Z"/>
      <path class="cls-3" d="m164.59,56.54c-.33,0-.66-.14-.89-.42l-3.11-3.78c-.4-.49-.33-1.22.16-1.62.49-.41,1.22-.34,1.62.16l3.11,3.78c.4.49.33,1.22-.16,1.62-.21.18-.47.26-.73.26Z"/>
      <path class="cls-3" d="m172.24,51.16c-.39,0-.78-.2-.99-.56l-3.05-5.15c-.33-.55-.15-1.26.4-1.58.55-.33,1.26-.14,1.58.4l3.05,5.15c.33.55.15,1.25-.4,1.58-.18.11-.39.16-.59.16Z"/>
      <path class="cls-3" d="m180.37,47.16c-.46,0-.89-.28-1.07-.73l-2.61-6.57c-.23-.59.06-1.26.65-1.5.59-.24,1.26.05,1.5.65l2.61,6.57c.23.59-.06,1.26-.65,1.5-.14.05-.28.08-.42.08Z"/>
      <path class="cls-3" d="m188.82,44.57c-.53,0-1.01-.37-1.12-.91l-1.74-7.9c-.14-.62.26-1.24.88-1.37.62-.14,1.24.25,1.37.88l1.74,7.9c.14.62-.26,1.24-.88,1.37-.08.02-.17.03-.25.03Z"/>
      <path class="cls-3" d="m197.44,43.41c-.61,0-1.12-.48-1.15-1.09l-.46-8.93c-.03-.63.46-1.18,1.09-1.21.6-.01,1.18.46,1.21,1.09l.46,8.93c.03.63-.46,1.18-1.15,1.21Z"/>
      <path class="cls-3" d="m206.1,43.69c-.77-.08-1.22-.65-1.15-1.29l1.06-9.17c.07-.63.66-1.07,1.28-1.01.63.07,1.09.65,1.01,1.28l-1.06,9.16c-.07.59-.57,1.02-1.14,1.02Z"/>
      <path class="cls-3" d="m214.63,45.42c-.11,0-.22-.01-.32-.05-.61-.18-.96-.82-.78-1.43l2.59-8.85c.18-.61.83-.96,1.43-.78.61.18.96.82.78,1.43l-2.59,8.85c-.15.5-.61.83-1.11.83Z"/>
    </g>
  </g>
  <g>
    <path class="cls-7" d="m281.14,278.62c6.42,5.1,14.14,8.46,22.29,9.47,7.91.98,16.78.25,24.11-2.97,6.65-2.92,12.73-7.37,18.25-12.06,3.42-2.91,6.57-6.09,9.82-9.18,1.64-1.57,3.33-3.18,5.09-4.82,4.6-4.32,16.52-13.82,27.74-8.57,3.42,1.6,6.01,4.43,7.3,7.97,1.29,3.55,1.11,7.39-.48,10.8-1.1,2.35-3.04,4.13-5.48,5.02-2.44.88-5.08.76-7.43-.33-.26-.12-.48-.28-.72-.43.48.11.97.18,1.48.18,3.67,0,6.66-2.99,6.66-6.66s-2.99-6.65-6.66-6.65c-2.87,0-5.47,1.95-6.31,4.68-.68,1.93-.72,4-.01,5.95.81,2.23,2.44,4.01,4.59,5.02,2.91,1.36,6.17,1.5,9.19.41,3.02-1.09,5.43-3.3,6.79-6.21,1.86-3.98,2.06-8.44.56-12.57-1.5-4.12-4.51-7.42-8.49-9.28-2.66-1.24-5.33-1.76-7.94-1.76-9.66,0-18.46,7.08-22.35,10.74-1.76,1.65-3.45,3.27-5.1,4.83-1.08,1.03-2.12,2.02-3.16,3,1.71-2,3.51-4.13,5.38-6.34,8.21-9.71,17.51-20.71,24.2-26.96,11.59-10.85,18.7-14.15,30.43-14.15,3.52,0,7.01.87,10.08,2.5,8.28,4.4,11.52,13.32,7.87,21.69-1.29,2.96-3.66,5.25-6.67,6.43-3.01,1.18-6.3,1.12-9.26-.17-2.31-1.01-4.1-2.86-5.02-5.21-.71-1.8-.83-3.74-.4-5.58.15,4.25,3.63,7.67,7.92,7.67s7.94-3.56,7.94-7.94c0-3.33-2.18-6.36-5.31-7.46-4.74-1.74-10.09.47-12.13,5.16-1.25,2.88-1.32,6.07-.17,9,1.15,2.92,3.36,5.22,6.24,6.48,3.53,1.54,7.44,1.61,11.02.2,3.58-1.41,6.4-4.13,7.94-7.65,3.15-7.22,1.8-14.8-3.14-20.22,4.4,2.68,7.64,5.87,9.74,7.94.79.78,1.6,1.53,2.4,2.28,3.08,2.87,6.9,6.44,15.46,6.44,1.52,0,3.78-.3,5.41-.97,6.44-2.69,9.5-10.12,6.81-16.56-1.06-2.54-3.04-4.51-5.58-5.56-1.26-.52-2.59-.78-3.92-.78s-2.68.27-3.96.8c-2.07.86-3.68,2.48-4.54,4.56-.68,1.65-.79,3.43-.39,5.13.63,3.16,3.43,5.55,6.77,5.55,3.81,0,6.91-3.1,6.91-6.91,0-3.33-2.36-6.11-5.49-6.76,1.26-.12,2.53.04,3.74.53,1.97.82,3.51,2.35,4.33,4.32,2.2,5.27-.3,11.34-5.57,13.54-1.13.47-2.99.8-4.52.8-7.65,0-10.96-3.09-13.88-5.82-.8-.74-1.59-1.48-2.36-2.24-4.45-4.38-13.71-13.51-28.28-13.51-12.43,0-19.91,3.45-32.01,14.78-6.45,6.03-15.2,16.31-23.14,25.69,4.72-10.93,4.87-21.52,2.81-28.1-2.35-7.52-9.31-12.36-16.8-12.36-1.73,0-3.49.26-5.22.8-6.76,2.11-10.55,9.32-8.44,16.09.75,2.41,2.4,4.39,4.64,5.57,1.91,1,4.07,1.27,6.16.87,3.4-.53,6.01-3.51,6.01-6.97,0-3.9-3.17-7.07-7.07-7.07s-7.08,3.18-7.08,7.07c0,.41.05.8.12,1.19-.24-.42-.43-.87-.58-1.35-1.73-5.55,1.38-11.48,6.93-13.2,8.05-2.51,16.63,2,19.14,10.05,2.63,8.44,1.43,23.87-9.36,37.69-4.16,4.81-8.48,9.1-13.79,12.66-15.93,10.22-35.61,9.88-50.61-2.03-11.28-8.96-15.86-24.18-11.4-37.87,1.28-3.91,3.26-7.58,5.82-10.8,8.04-10.13,22.26-13.29,33.81-7.5,1.71.86,3.32,1.89,4.8,3.07,4.55,3.61,7.42,8.78,8.08,14.56.66,5.77-.96,11.46-4.58,16.01-5.89,7.42-16.71,8.66-24.13,2.78-5.83-4.64-6.81-13.15-2.17-18.98,1.75-2.21,4.27-3.6,7.07-3.93,2.79-.32,5.57.47,7.78,2.22,3.55,2.83,4.15,8.01,1.33,11.57-.4.5-.31,1.22.19,1.62.5.4,1.23.31,1.62-.18,3.61-4.55,2.85-11.19-1.7-14.81-5.57-4.42-13.68-3.49-18.1,2.08-5.42,6.83-4.28,16.8,2.55,22.22,8.41,6.68,20.69,5.27,27.37-3.14,4-5.03,5.79-11.32,5.06-17.7-.73-6.39-3.91-12.11-8.94-16.1-1.6-1.28-3.36-2.39-5.21-3.32-12.52-6.27-27.93-2.85-36.65,8.13-2.72,3.43-4.84,7.35-6.2,11.52-4.76,14.6.13,30.83,12.16,40.38Zm101.95-15.92c2.4,0,4.35,1.95,4.35,4.35s-1.95,4.35-4.35,4.35-4.34-1.95-4.34-4.35,1.99-4.35,4.34-4.35Zm37.94-25.55c0,3.11-2.53,5.64-5.64,5.64s-5.64-2.53-5.64-5.64,2.53-5.64,5.64-5.64,5.64,2.58,5.64,5.64Zm39.58-12.57c0,2.54-2.07,4.6-4.6,4.6-1.9,0-3.54-1.16-4.24-2.81-.22-.57-.36-1.18-.36-1.79,0-2.54,2.06-4.6,4.6-4.6s4.6,2.07,4.6,4.6Zm-122.8,2.46c2.63,0,4.77,2.14,4.77,4.77s-2.21,4.77-4.77,4.77-4.77-2.14-4.77-4.77,2.14-4.77,4.77-4.77Z"/>
    <path class="cls-7" d="m240.16,238.24c-1.36-4.17-3.47-8.09-6.2-11.52-8.72-10.98-24.13-14.39-36.65-8.13-1.85.93-3.6,2.04-5.21,3.32-5.03,3.99-8.21,9.71-8.94,16.1-.73,6.38,1.07,12.67,5.06,17.7,6.68,8.41,18.96,9.82,27.37,3.14,6.83-5.43,7.97-15.39,2.55-22.22-4.42-5.56-12.53-6.5-18.1-2.08-4.55,3.62-5.31,10.25-1.7,14.81.39.49,1.12.58,1.62.18.5-.39.58-1.12.19-1.62-2.82-3.55-2.22-8.74,1.33-11.57,2.21-1.76,4.99-2.55,7.78-2.22,2.81.32,5.32,1.72,7.07,3.93,4.63,5.83,3.66,14.35-2.17,18.98-7.42,5.89-18.24,4.65-24.13-2.78-3.61-4.54-5.24-10.23-4.58-16.01.66-5.77,3.53-10.94,8.08-14.56,1.48-1.18,3.1-2.21,4.8-3.07,11.55-5.79,25.76-2.63,33.81,7.5,2.56,3.22,4.54,6.89,5.82,10.8,4.46,13.69-.12,28.91-11.4,37.87-15,11.91-34.68,12.25-50.61,2.03-5.3-3.56-9.63-7.85-13.79-12.66-10.79-13.82-11.99-29.25-9.36-37.69,2.51-8.04,11.09-12.56,19.14-10.05,5.54,1.73,8.65,7.65,6.93,13.2-.15.47-.35.92-.58,1.35.07-.39.12-.78.12-1.19,0-3.9-3.18-7.07-7.08-7.07s-7.07,3.18-7.07,7.07c0,3.46,2.62,6.44,6.01,6.97,2.1.4,4.25.13,6.16-.87,2.24-1.18,3.89-3.15,4.64-5.57,2.11-6.77-1.68-13.98-8.44-16.09-1.73-.54-3.49-.8-5.22-.8-7.49,0-14.46,4.83-16.8,12.36-2.05,6.58-1.91,17.18,2.81,28.1-7.93-9.38-16.69-19.65-23.14-25.69-12.1-11.32-19.58-14.78-32.01-14.78-14.57,0-23.84,9.12-28.29,13.51-.77.76-1.56,1.51-2.36,2.24-2.92,2.72-6.23,5.82-13.88,5.82-1.53,0-3.39-.33-4.53-.8-5.27-2.2-7.77-8.27-5.57-13.54.82-1.97,2.36-3.5,4.33-4.32,1.2-.5,2.48-.65,3.74-.53-3.13.65-5.49,3.43-5.49,6.76,0,3.81,3.1,6.91,6.91,6.91,3.35,0,6.14-2.39,6.77-5.55.41-1.7.29-3.48-.39-5.13-.86-2.08-2.47-3.7-4.54-4.56-1.28-.53-2.62-.8-3.96-.8s-2.65.26-3.92.78c-2.54,1.05-4.52,3.02-5.58,5.56-2.69,6.44.37,13.87,6.81,16.56,1.63.67,3.89.97,5.41.97,8.56,0,12.38-3.57,15.46-6.44.81-.75,1.62-1.51,2.4-2.28,2.11-2.07,5.35-5.26,9.74-7.94-4.94,5.42-6.29,13-3.14,20.22,1.54,3.53,4.35,6.24,7.93,7.65,3.59,1.41,7.5,1.34,11.03-.2,2.88-1.26,5.1-3.56,6.24-6.48,1.15-2.92,1.09-6.12-.17-9-2.04-4.69-7.39-6.9-12.13-5.16-3.13,1.1-5.31,4.13-5.31,7.46,0,4.38,3.56,7.94,7.95,7.94s7.77-3.42,7.92-7.67c.43,1.85.31,3.78-.4,5.58-.92,2.35-2.7,4.2-5.02,5.21-2.96,1.29-6.25,1.35-9.26.17-3.01-1.18-5.37-3.46-6.67-6.43-3.65-8.37-.42-17.29,7.87-21.69,3.08-1.64,6.56-2.5,10.08-2.5,11.73,0,18.84,3.31,30.43,14.15,6.69,6.26,15.99,17.26,24.2,26.96,1.86,2.2,3.67,4.34,5.38,6.34-1.03-.98-2.08-1.97-3.15-3-1.65-1.57-3.34-3.18-5.1-4.83-3.89-3.66-12.69-10.74-22.35-10.74-2.61,0-5.28.52-7.94,1.76-3.98,1.86-6.99,5.15-8.49,9.28-1.5,4.13-1.3,8.59.56,12.57,1.36,2.91,3.77,5.11,6.79,6.21,3.02,1.09,6.28.95,9.19-.41,2.15-1.01,3.78-2.79,4.59-5.02.71-1.95.67-4.02,0-5.95-.85-2.73-3.45-4.68-6.32-4.68-3.67,0-6.65,2.99-6.65,6.65s2.98,6.66,6.65,6.66c.51,0,1-.07,1.48-.18-.24.15-.46.31-.72.43-2.35,1.09-4.99,1.21-7.43.33-2.44-.88-4.39-2.67-5.48-5.02-1.6-3.42-1.77-7.25-.48-10.8,1.29-3.54,3.88-6.38,7.29-7.97,11.22-5.25,23.14,4.25,27.74,8.57,1.76,1.64,3.44,3.26,5.09,4.82,3.25,3.1,6.4,6.27,9.82,9.18,5.51,4.68,11.6,9.14,18.25,12.06,7.33,3.22,16.2,3.95,24.11,2.97,8.14-1.01,15.87-4.37,22.29-9.47,12.03-9.56,16.92-25.79,12.16-40.38Zm-109.76,28.81c0,2.4-1.95,4.35-4.35,4.35s-4.35-1.95-4.35-4.35,1.95-4.35,4.35-4.35,4.35,1.98,4.35,4.35Zm-36.64-35.54c3.11,0,5.64,2.53,5.64,5.64s-2.53,5.64-5.64,5.64-5.64-2.53-5.64-5.64,2.56-5.64,5.64-5.64Zm-40.62-11.53c2.54,0,4.6,2.07,4.6,4.6,0,.61-.14,1.22-.36,1.79-.7,1.65-2.34,2.81-4.24,2.81-2.54,0-4.6-2.06-4.6-4.6s2.06-4.6,4.6-4.6Zm122.97,11.83c0,2.63-2.14,4.77-4.77,4.77s-4.77-2.23-4.77-4.77,2.14-4.77,4.77-4.77,4.77,2.14,4.77,4.77Z"/>
    <path class="cls-7" d="m268.96,100.58c1.36,4.17,3.47,8.09,6.2,11.52,8.72,10.98,24.13,14.39,36.65,8.13,1.85-.93,3.6-2.05,5.21-3.33,5.03-3.99,8.21-9.71,8.94-16.1.73-6.38-1.07-12.68-5.06-17.71-6.68-8.41-18.96-9.82-27.37-3.14-6.82,5.42-7.97,15.39-2.55,22.22,4.42,5.56,12.53,6.5,18.1,2.08,4.55-3.62,5.31-10.26,1.7-14.8-.39-.5-1.12-.58-1.62-.18-.5.39-.58,1.12-.18,1.62,2.82,3.55,2.22,8.74-1.33,11.56-2.21,1.76-4.99,2.55-7.78,2.22-2.81-.32-5.32-1.72-7.07-3.93-4.63-5.83-3.66-14.35,2.17-18.98,7.42-5.89,18.24-4.64,24.13,2.77,3.61,4.55,5.24,10.23,4.58,16.01-.66,5.77-3.53,10.94-8.08,14.56-1.48,1.18-3.1,2.21-4.8,3.07-11.55,5.79-25.76,2.63-33.81-7.5-2.56-3.22-4.54-6.89-5.82-10.8-4.46-13.69.12-28.91,11.4-37.87,15-11.91,34.68-12.25,50.61-2.03,5.3,3.56,9.63,7.86,13.79,12.66,10.79,13.82,11.99,29.25,9.36,37.7-2.51,8.04-11.09,12.56-19.14,10.05-5.55-1.73-8.65-7.65-6.93-13.2.15-.47.35-.92.58-1.35-.07.39-.12.78-.12,1.19,0,3.9,3.17,7.07,7.08,7.07s7.07-3.17,7.07-7.07c0-3.46-2.62-6.44-6.01-6.97-2.09-.4-4.25-.13-6.16.88-2.24,1.17-3.89,3.15-4.64,5.57-2.1,6.76,1.68,13.98,8.44,16.09,1.73.54,3.49.8,5.22.8,7.49,0,14.46-4.84,16.8-12.36,2.05-6.59,1.92-17.18-2.81-28.1,7.94,9.38,16.69,19.65,23.13,25.69,12.1,11.32,19.58,14.77,32.01,14.77,14.57,0,23.83-9.12,28.29-13.5.77-.76,1.56-1.51,2.36-2.24,2.92-2.72,6.24-5.81,13.88-5.81,1.53,0,3.39.33,4.52.8,5.27,2.2,7.76,8.27,5.57,13.54-.82,1.97-2.36,3.5-4.33,4.31-1.2.5-2.48.65-3.74.54,3.13-.66,5.5-3.43,5.5-6.76,0-3.81-3.1-6.91-6.91-6.91-3.35,0-6.14,2.39-6.77,5.56-.41,1.7-.29,3.48.39,5.13.86,2.08,2.47,3.7,4.54,4.56,1.28.53,2.62.8,3.96.8s2.65-.26,3.92-.78c2.54-1.05,4.52-3.02,5.58-5.56,2.69-6.44-.37-13.87-6.81-16.56-1.63-.67-3.89-.97-5.41-.97-8.56,0-12.38,3.57-15.46,6.44-.81.75-1.62,1.51-2.41,2.28-2.1,2.07-5.34,5.26-9.74,7.94,4.93-5.42,6.29-12.99,3.14-20.22-1.54-3.52-4.35-6.24-7.94-7.65-3.58-1.41-7.5-1.34-11.03.2-2.88,1.26-5.09,3.56-6.24,6.48-1.15,2.92-1.09,6.12.17,9,2.04,4.69,7.39,6.9,12.13,5.16,3.13-1.1,5.31-4.13,5.31-7.46,0-4.38-3.56-7.94-7.94-7.94s-7.78,3.42-7.92,7.68c-.43-1.85-.31-3.78.4-5.58.92-2.35,2.7-4.2,5.02-5.21,2.96-1.29,6.25-1.35,9.26-.17s5.37,3.46,6.67,6.43c3.65,8.37.42,17.29-7.87,21.7-3.07,1.63-6.56,2.5-10.08,2.5-11.73,0-18.84-3.31-30.43-14.15-6.68-6.26-15.99-17.26-24.2-26.97-1.86-2.2-3.67-4.34-5.38-6.34,1.04.98,2.08,1.97,3.16,3,1.65,1.57,3.34,3.18,5.1,4.83,3.89,3.66,12.69,10.74,22.35,10.74,2.61,0,5.29-.52,7.94-1.76,3.98-1.86,6.99-5.15,8.49-9.28,1.49-4.12,1.3-8.59-.56-12.56-1.36-2.91-3.77-5.11-6.79-6.21-3.02-1.09-6.28-.95-9.19.41-2.15,1-3.79,2.79-4.59,5.02-.7,1.95-.67,4.02.01,5.95.84,2.73,3.45,4.68,6.32,4.68,3.67,0,6.65-2.98,6.65-6.65s-2.98-6.65-6.65-6.65c-.51,0-1,.07-1.48.18.23-.15.46-.31.72-.43,2.35-1.09,4.99-1.21,7.43-.33,2.44.88,4.39,2.67,5.48,5.01,1.6,3.42,1.77,7.26.48,10.8-1.29,3.55-3.88,6.38-7.3,7.98-11.22,5.25-23.14-4.25-27.74-8.57-1.76-1.64-3.45-3.26-5.09-4.82-3.25-3.1-6.4-6.28-9.82-9.18-5.51-4.68-11.6-9.14-18.25-12.06-7.33-3.22-16.2-3.95-24.11-2.97-8.14,1.01-15.87,4.37-22.29,9.47-12.03,9.56-16.92,25.79-12.16,40.39Zm109.77-28.81c0-2.4,1.95-4.35,4.34-4.35s4.35,1.95,4.35,4.35-1.95,4.34-4.35,4.34-4.34-1.98-4.34-4.34Zm36.64,35.54c-3.11,0-5.64-2.53-5.64-5.64s2.53-5.64,5.64-5.64,5.64,2.53,5.64,5.64-2.56,5.64-5.64,5.64Zm40.61,11.54c-2.54,0-4.6-2.06-4.6-4.6,0-.61.13-1.22.36-1.79.7-1.65,2.34-2.81,4.24-2.81,2.54,0,4.6,2.06,4.6,4.6s-2.07,4.6-4.6,4.6Zm-122.97-11.83c0-2.63,2.14-4.77,4.77-4.77s4.77,2.23,4.77,4.77-2.14,4.77-4.77,4.77-4.77-2.14-4.77-4.77Z"/>
    <path class="cls-7" d="m228,60.19c-6.42-5.1-14.15-8.45-22.29-9.47-7.91-.99-16.78-.25-24.11,2.97-6.65,2.92-12.73,7.37-18.25,12.06-3.42,2.91-6.57,6.09-9.82,9.18-1.64,1.57-3.33,3.18-5.09,4.82-4.6,4.32-16.53,13.82-27.74,8.57-3.42-1.6-6.01-4.43-7.29-7.98-1.29-3.55-1.12-7.38.48-10.8,1.1-2.35,3.04-4.13,5.48-5.01,2.44-.88,5.08-.76,7.43.33.26.12.48.28.72.43-.48-.11-.97-.18-1.48-.18-3.67,0-6.65,2.98-6.65,6.65s2.98,6.65,6.65,6.65c2.87,0,5.47-1.95,6.32-4.68.68-1.93.71-4,0-5.95-.81-2.23-2.44-4.01-4.59-5.02-2.91-1.36-6.17-1.5-9.19-.41-3.02,1.09-5.43,3.3-6.79,6.21-1.86,3.98-2.06,8.44-.56,12.56,1.5,4.13,4.51,7.42,8.49,9.28,2.66,1.24,5.33,1.76,7.94,1.76,9.66,0,18.46-7.08,22.35-10.74,1.76-1.65,3.45-3.26,5.1-4.83,1.07-1.02,2.12-2.02,3.15-3-1.71,2-3.51,4.13-5.38,6.34-8.21,9.71-17.51,20.71-24.2,26.97-11.59,10.85-18.7,14.15-30.43,14.15-3.52,0-7.01-.87-10.08-2.5-8.28-4.41-11.52-13.33-7.87-21.7,1.29-2.96,3.66-5.25,6.67-6.43,3.01-1.18,6.3-1.13,9.26.17,2.32,1.01,4.1,2.86,5.02,5.21.71,1.8.83,3.74.4,5.58-.14-4.26-3.63-7.68-7.92-7.68s-7.95,3.56-7.95,7.94c0,3.33,2.18,6.36,5.31,7.46,4.74,1.74,10.09-.47,12.13-5.16,1.26-2.88,1.31-6.07.17-9-1.15-2.92-3.36-5.22-6.24-6.48-3.53-1.54-7.44-1.61-11.03-.2-3.58,1.41-6.4,4.12-7.93,7.65-3.15,7.23-1.8,14.8,3.14,20.22-4.4-2.68-7.64-5.87-9.74-7.94-.79-.78-1.6-1.53-2.4-2.28-3.07-2.87-6.9-6.44-15.46-6.44-1.52,0-3.78.3-5.41.97-6.44,2.69-9.5,10.12-6.81,16.56,1.06,2.54,3.04,4.51,5.58,5.56,1.26.52,2.59.78,3.92.78s2.68-.27,3.96-.8c2.07-.86,3.69-2.48,4.54-4.56.68-1.65.79-3.43.39-5.13-.63-3.16-3.43-5.56-6.77-5.56-3.81,0-6.91,3.1-6.91,6.91,0,3.33,2.36,6.1,5.49,6.76-1.26.11-2.53-.04-3.74-.54-1.97-.81-3.51-2.34-4.33-4.31-2.2-5.27.3-11.35,5.57-13.54,1.13-.47,2.99-.8,4.53-.8,7.65,0,10.96,3.09,13.88,5.81.8.74,1.59,1.48,2.36,2.24,4.45,4.38,13.71,13.5,28.29,13.5,12.43,0,19.91-3.45,32.01-14.77,6.45-6.03,15.2-16.31,23.14-25.69-4.72,10.92-4.86,21.52-2.81,28.1,2.35,7.52,9.31,12.36,16.8,12.36,1.73,0,3.49-.26,5.22-.8,6.76-2.11,10.55-9.32,8.44-16.09-.75-2.41-2.4-4.39-4.64-5.57-1.91-1.01-4.07-1.28-6.16-.88-3.4.53-6.01,3.51-6.01,6.97,0,3.9,3.17,7.07,7.07,7.07s7.08-3.17,7.08-7.07c0-.41-.05-.8-.12-1.19.23.43.43.88.58,1.35,1.73,5.55-1.38,11.47-6.93,13.2-8.05,2.51-16.63-2-19.14-10.05-2.63-8.44-1.43-23.88,9.36-37.7,4.16-4.81,8.48-9.1,13.79-12.66,15.93-10.22,35.61-9.87,50.61,2.03,11.28,8.96,15.86,24.18,11.4,37.87-1.28,3.91-3.26,7.58-5.82,10.8-8.04,10.13-22.26,13.29-33.81,7.5-1.71-.86-3.32-1.89-4.8-3.07-4.55-3.61-7.42-8.78-8.08-14.56-.66-5.77.96-11.46,4.58-16.01,5.89-7.42,16.71-8.66,24.13-2.77,5.83,4.63,6.81,13.15,2.17,18.98-1.76,2.21-4.27,3.61-7.07,3.93-2.79.32-5.57-.47-7.78-2.22-3.56-2.83-4.15-8.01-1.33-11.56.4-.5.31-1.22-.19-1.62-.5-.4-1.23-.31-1.62.18-3.61,4.55-2.85,11.19,1.7,14.8,5.57,4.42,13.68,3.49,18.1-2.08,5.42-6.83,4.28-16.8-2.55-22.22-8.41-6.68-20.69-5.26-27.37,3.14-4,5.03-5.79,11.32-5.06,17.71.73,6.39,3.91,12.1,8.94,16.1,1.61,1.28,3.36,2.4,5.21,3.33,12.52,6.27,27.93,2.85,36.65-8.13,2.73-3.44,4.84-7.35,6.2-11.52,4.76-14.6-.13-30.83-12.16-40.39Zm-101.95,15.92c-2.4,0-4.35-1.95-4.35-4.34s1.95-4.35,4.35-4.35,4.35,1.95,4.35,4.35-1.99,4.34-4.35,4.34Zm-37.93,25.55c0-3.11,2.53-5.64,5.64-5.64s5.64,2.53,5.64,5.64-2.53,5.64-5.64,5.64-5.64-2.58-5.64-5.64Zm-39.58,12.57c0-2.54,2.06-4.6,4.6-4.6,1.9,0,3.54,1.16,4.24,2.81.23.57.36,1.18.36,1.79,0,2.54-2.06,4.6-4.6,4.6s-4.6-2.06-4.6-4.6Zm122.8-2.46c-2.63,0-4.77-2.14-4.77-4.77s2.21-4.77,4.77-4.77,4.77,2.14,4.77,4.77-2.14,4.77-4.77,4.77Z"/>
  </g>
  <g>
    <path class="cls-4" d="m443.9,253.87c.11,0,.22.02.32.05,3.47,1.02,7.23,1.54,11.18,1.54.64,0,1.15.52,1.15,1.15s-.52,1.15-1.15,1.15c-3.87,0-7.57-.47-11.03-1.41-2.02,2.81-4.46,5.27-7.26,7.3-.52.38-1.24.26-1.61-.25-.37-.52-.26-1.24.26-1.61,2.81-2.04,5.23-4.54,7.19-7.42.22-.32.58-.5.96-.5Z"/>
    <path class="cls-4" d="m439.5,241.78c.22,0,.44.06.64.19,4.34,2.87,9.33,4.27,15.26,4.27,2.78,0,5.8-.56,8.08-1.51.59-.24,1.26.04,1.51.63.24.59-.04,1.26-.63,1.51-2.55,1.05-5.89,1.68-8.96,1.68-5.83,0-10.84-1.26-15.26-3.85-.23.63-.48,1.25-.75,1.87-2.52,5.78-7.14,10.24-13.01,12.55-.59.22-1.26-.06-1.5-.65-.23-.6.06-1.26.65-1.5,5.3-2.09,9.47-6.11,11.75-11.32.44-1,.82-2.02,1.12-3.04.11-.35.37-.62.71-.75.13-.04.26-.07.39-.07Z"/>
    <path class="cls-4" d="m65.25,253.87c-.11,0-.22.02-.33.05-3.47,1.02-7.23,1.54-11.17,1.54-.64,0-1.15.52-1.15,1.15s.52,1.15,1.15,1.15c3.86,0,7.57-.47,11.03-1.41,2.02,2.81,4.46,5.27,7.26,7.3.52.38,1.24.26,1.61-.25.38-.52.26-1.24-.25-1.61-2.81-2.04-5.23-4.54-7.19-7.42-.22-.32-.58-.5-.95-.5Z"/>
    <path class="cls-4" d="m69.65,241.78c-.22,0-.44.06-.64.19-4.34,2.87-9.33,4.27-15.26,4.27-2.78,0-5.79-.56-8.08-1.51-.59-.24-1.26.04-1.51.63-.24.59.04,1.26.63,1.51,2.55,1.05,5.9,1.68,8.96,1.68,5.83,0,10.84-1.26,15.26-3.85.23.63.48,1.25.75,1.87,2.52,5.78,7.14,10.24,13.01,12.55.59.22,1.26-.06,1.49-.65.23-.6-.06-1.26-.65-1.5-5.3-2.09-9.47-6.11-11.74-11.32-.44-1-.82-2.02-1.13-3.04-.1-.35-.37-.62-.71-.75-.13-.04-.26-.07-.39-.07Z"/>
    <path class="cls-4" d="m443.87,84.94c.11,0,.21-.01.32-.05,3.47-1.03,7.23-1.54,11.18-1.54.64,0,1.15-.52,1.15-1.15s-.52-1.15-1.15-1.15c-3.86,0-7.57.47-11.03,1.41-2.02-2.81-4.46-5.26-7.26-7.3-.52-.38-1.24-.26-1.61.25-.38.51-.26,1.24.26,1.61,2.81,2.04,5.23,4.54,7.19,7.42.22.32.58.5.96.5Z"/>
    <path class="cls-4" d="m439.47,97.04c.22,0,.44-.07.64-.19,4.34-2.87,9.33-4.27,15.26-4.27,2.77,0,5.79.56,8.08,1.51.59.24,1.26-.04,1.51-.63.24-.59-.04-1.26-.63-1.51-2.55-1.05-5.89-1.68-8.96-1.68-5.83,0-10.84,1.26-15.26,3.86-.23-.63-.48-1.26-.75-1.88-2.52-5.78-7.14-10.23-13.01-12.55-.58-.23-1.26.06-1.49.65-.23.59.06,1.26.65,1.5,5.3,2.08,9.47,6.1,11.75,11.32.44,1,.82,2.02,1.12,3.04.11.35.37.63.71.75.13.05.26.07.39.07Z"/>
    <path class="cls-4" d="m65.25,84.94c-.11,0-.22-.01-.33-.05-3.47-1.03-7.23-1.54-11.17-1.54-.64,0-1.15-.52-1.15-1.15s.52-1.15,1.15-1.15c3.86,0,7.57.47,11.03,1.41,2.02-2.81,4.46-5.26,7.26-7.3.52-.38,1.24-.26,1.61.25.38.51.26,1.24-.25,1.61-2.81,2.04-5.23,4.54-7.19,7.42-.22.32-.58.5-.95.5Z"/>
    <path class="cls-4" d="m69.65,97.04c-.22,0-.44-.07-.64-.19-4.34-2.87-9.33-4.27-15.26-4.27-2.78,0-5.79.56-8.08,1.51-.59.24-1.26-.04-1.51-.63-.24-.59.04-1.26.63-1.51,2.55-1.05,5.9-1.68,8.96-1.68,5.83,0,10.84,1.26,15.26,3.86.23-.63.48-1.26.75-1.88,2.52-5.78,7.14-10.23,13.01-12.55.59-.23,1.26.06,1.49.65.23.59-.06,1.26-.65,1.5-5.3,2.08-9.47,6.1-11.74,11.32-.44,1-.82,2.02-1.13,3.04-.1.35-.37.63-.71.75-.13.05-.26.07-.39.07Z"/>
  </g>
  <g>
    <path class="cls-4" d="m284.49,215.79c-2.46-.78-4.98-1.17-7.49-1.17-9.76,0-18.79,6.16-22.43,15.14-3.63-8.98-12.67-15.14-22.46-15.14-2.51,0-5.03.39-7.49,1.17-7.04,2.21-21.11,13.97-17.1,34.5,2.33,11.9,10.85,17.19,19.89,22.8,9.46,5.87,20.19,12.52,25.59,28.38.23.67.86,1.12,1.57,1.12s1.34-.45,1.57-1.12c5.4-15.86,16.12-22.51,25.59-28.39,9.02-5.6,17.54-10.89,19.88-22.8,4.02-20.53-10.06-32.29-17.1-34.5Zm13.85,33.86c-2.05,10.49-9.62,15.19-18.39,20.63-9.06,5.62-19.3,11.98-25.4,26.06-6.1-14.08-16.34-20.44-25.41-26.07-8.76-5.43-16.33-10.13-18.38-20.62-3.59-18.36,8.69-28.77,14.85-30.71,2.15-.67,4.34-1.02,6.5-1.02,11.23,0,20.75,9.28,20.79,20.27,0,.9.71,1.57,1.65,1.57s1.65-.79,1.65-1.72c.04-10.9,9.56-20.12,20.79-20.12,2.17,0,4.35.34,6.5,1.02,6.16,1.93,18.44,12.35,14.84,30.71Z"/>
    <path class="cls-4" d="m296.36,55.81c-6.17-7.5-12.4-12.68-18.44-17.69-9.33-7.74-17.39-14.43-21.8-27.51-.23-.67-.86-1.12-1.57-1.12s-1.34.45-1.57,1.12c-4.41,13.08-12.47,19.76-21.8,27.5-6.03,5.01-12.27,10.18-18.44,17.69-6.09,7.4-8.44,15.88-6.62,23.87,1.67,7.36,6.68,13.62,13.39,16.73,3.36,1.56,7.33,2.39,11.47,2.39,7.18,0,13.58-2.45,17.51-6.62-2.86,16.02-10.89,27.53-16.92,28.39-.85.12-1.48.89-1.42,1.75.06.86.78,1.54,1.65,1.54h45.48c.86,0,1.59-.67,1.65-1.54.06-.86-.56-1.63-1.42-1.75-6.03-.86-14.06-12.37-16.92-28.39,3.94,4.17,10.33,6.61,17.51,6.62,4.14,0,8.11-.83,11.47-2.39,6.71-3.12,11.71-9.37,13.39-16.73,1.82-7.99-.53-16.46-6.62-23.87Zm-40.05,25.27c.05,15.48,6.26,32.39,14.33,39.48h-32.15c8.07-7.09,14.27-23.99,14.32-39.48,0-.89-.7-1.54-1.68-1.55-.87.02-1.62.82-1.62,1.74-.08,9.77-9.65,14.22-18.52,14.22-3.66,0-7.14-.72-10.07-2.08-5.7-2.65-10.13-8.2-11.56-14.47-1.12-4.93-1-12.58,5.95-21.03,5.96-7.25,12.06-12.31,18.01-17.25,8.76-7.27,16.36-13.58,21.24-24.89,4.88,11.31,12.48,17.62,21.28,24.92,5.9,4.9,12.01,9.97,17.97,17.22,6.95,8.45,7.07,16.1,5.95,21.03h0c-1.43,6.27-5.85,11.82-11.56,14.47-2.93,1.36-6.41,2.08-10.07,2.08-8.86,0-18.44-4.45-18.52-14.22,0-.92-.75-1.72-1.64-1.74-.96.01-1.67.66-1.67,1.55Z"/>
  </g>
  <path class="cls-6" d="m273.03,49.98c-.01-.2-.14-.36-.32-.43-.06-.03-.13-.04-.19-.04-.02,0-.03,0-.05,0-.08,0-.15.03-.21.07-.02.01-.04.02-.06.03-.06.04-.09.07-.13.1-.23.23-.39.32-.71.51-.13.07-.32.12-.52.17-.08.02-.16.04-.24.07-.09-.06-.19-.08-.26-.09-.02,0-.08,0-.1,0-.16,0-.29.05-.38.08-.41.14-.74.31-1.03.53-.02,0-.05-.01-.07-.02-.06-.01-.12-.02-.19-.02-.63,0-1.32.62-1.51.83l-.04.04-.04.04s-.09-.01-.14-.01c-.38,0-.71.27-.98.54-.15.14-.3.31-.43.47-.03.04-.06.08-.08.12-.06,0-.12,0-.18.02-.04.01-.08.02-.12.04.07-.24.11-.5.1-.79,0-.23-.07-.4-.16-.51.07-.15.13-.3.2-.54.14-.47.13-.84-.04-1.12-.01-.02-.03-.05-.05-.07,0-.01.01-.03.02-.04.19-.44.28-.8.3-1.12,0-.19-.03-.34-.08-.45.16-.27.35-.73.12-1.21.01-.02.03-.05.04-.08.24-.44.28-.51.56-.92.06-.08.13-.15.22-.24.09-.08.18-.17.26-.27.03-.04.09-.07.18-.12.12-.06.26-.13.39-.27.19-.2.18-.52-.02-.71-.14-.13-.32-.19-.54-.19-.43,0-1.06.26-1.56.48-.51.23-.82.43-1.15.72-.04,0-.08-.01-.12-.02-.01,0-.06,0-.07,0-.64,0-1.28.73-1.48,1.06-.02.03-.04.06-.06.1-.04,0-.07,0-.11,0-.2,0-.39.06-.58.19-.26.17-.38.33-.53.52-.24.31-.35.59-.42.83-.19,0-.38.07-.57.21-.59.43-.82,1.01-.93,1.57-.13.04-.23.11-.32.18-.07.06-.15.14-.23.23,0-.05-.02-.11-.03-.17l-.02-.14c-.04-.26-.1-.69-.43-.94.03-.21.06-.51-.03-.93-.04-.2-.16-.71-.53-.93,0-.14-.05-.27-.17-.65l-.03-.11c-.05-.18-.13-.42-.31-.62.01-.38-.02-.61-.12-1.01-.14-.57-.39-.81-.62-.92-.02-.21-.05-.44-.16-.67l-.04-.08c-.09-.2-.23-.53-.5-.69-.04-.39-.12-.7-.19-1.02-.04-.15-.07-.31-.11-.48-.03-.14-.05-.29-.08-.43-.03-.16-.05-.32-.08-.48-.02-.11-.03-.22-.04-.33-.02-.21-.04-.45-.13-.69-.07-.18-.24-.3-.43-.31-.01,0-.02,0-.03,0-.04,0-.09,0-.13.02-.03,0-.06,0-.09,0-.16.03-.29.13-.36.27-.1.21-.13.47-.15.72-.01.11-.02.22-.04.31-.03.16-.06.32-.08.48-.02.14-.05.29-.08.43-.04.18-.07.33-.11.48-.08.32-.15.63-.19,1.01-.13.07-.23.18-.32.33-.05.08-.09.18-.14.28l-.06.13c-.12.24-.16.48-.18.69-.24.11-.36.33-.42.45-.01.02-.02.04-.04.06-.06.06-.09.12-.11.21l-.05.2c-.09.36-.14.58-.13,1.01-.08.09-.14.19-.2.34-.04.1-.09.24-.12.36l-.02.07c-.11.36-.16.5-.16.63-.26.15-.44.47-.53.96-.08.39-.06.65-.03.89-.13.09-.21.21-.3.42-.08.19-.1.37-.13.54l-.02.12c-.01.06-.02.12-.03.17-.12-.16-.29-.33-.55-.4-.05-.32-.14-.66-.43-1.06-.12-.17-.34-.41-.53-.54-.13-.09-.3-.19-.54-.2-.09-.25-.21-.55-.43-.83-.21-.26-.55-.69-1.09-.69-.04,0-.08,0-.12,0-.02-.04-.05-.09-.07-.12-.12-.21-.77-1.04-1.47-1.04-.04,0-.08,0-.12,0-.03,0-.05,0-.07.01-.28-.25-.51-.43-1.06-.67l-.05-.02c-.55-.25-1.18-.51-1.65-.51-.04,0-.1,0-.14.01-.16.03-.26.08-.36.19-.2.19-.21.51-.02.71.12.12.27.2.39.26l.07.03s.06.03.08.04c.01.01.03.03.05.06.09.11.15.17.23.23.02.02.05.04.08.07.08.07.14.18.22.3.05.08.1.15.15.22.1.13.16.25.24.39.05.08.09.17.15.27-.02.04-.04.09-.05.15-.13.46.02.84.17,1.09-.04.09-.06.2-.07.33,0,.16.02.36.08.6.03.1.08.25.14.4.04.11.08.21.1.27-.07.09-.14.22-.16.39-.06.35.01.61.08.81.08.28.13.42.2.55-.09.12-.16.3-.16.54,0,.29.03.54.1.75-.06-.03-.11-.04-.17-.05-.03,0-.08,0-.11-.01-.22-.31-.88-1.13-1.5-1.13-.05,0-.09,0-.13.01-.26-.3-.7-.69-1.22-.85-.16-.05-.3-.07-.41-.07-.07,0-.15,0-.23.03-.31-.25-.61-.38-1.01-.52-.17-.06-.3-.09-.42-.09-.09,0-.22.02-.34.09-.09-.03-.17-.05-.24-.06-.3-.08-.55-.14-.98-.44-.09-.06-.14-.12-.19-.16-.07-.07-.16-.17-.3-.24-.07-.04-.15-.05-.22-.05-.08,0-.17.02-.24.06-.14.08-.24.23-.26.39-.07.75.7,1.76.91,1.99,0,0,.12.13.27.25,0,.17.07.29.15.43l.05.08c.28.52.71.81,1.13,1.01.13.36.41.75.65,1.05.23.29.47.45.66.58.03.02.06.04.09.06-.02.44.25.85.39,1.08l.04.06c.18.29.35.52.5.69,0,.07,0,.15.01.24.08.49.46,1.29.87,1.77-.02.16.01.29.07.48l.5-.09-.48.15c.05.16.1.32.18.48.1.21.22.38.32.51-.04.17-.04.38.01.63.07.36.19.57.28.75.05.11.1.19.13.3.18.44.49,1.23.7,2.01.02.06.04.11.07.15.04.13.07.34.09.51,0,0,0,.06,0,.06.03.21.05.38.05.52,0,0-.02.01-.02.02-.05.04-.1.08-.13.12-.32.31-.67.69-.86,1.21-.12.33-.26.83-.1,1.32.36,1.08,1.03,1.56,2.07,2.01,1.84.81,3.83,1.15,5.71,1.44,1.14.17,3.27.3,4.47.3s3.35-.12,4.49-.3c1.28-.2,2.65-.43,3.93-.81,1.23-.36,2.82-.95,3.38-1.76.38-.56.73-1.19.34-2.22-.19-.51-.62-.97-.87-1.2-.03-.03-.07-.07-.12-.1,0,0-.02-.01-.02-.02,0-.14.02-.3.05-.49,0-.02,0-.07,0-.09.02-.18.06-.39.09-.52.03-.04.05-.09.07-.14.21-.76.5-1.52.66-1.91.01-.03.02-.06.03-.09.02-.1.06-.18.12-.29.1-.18.23-.42.3-.78.05-.24.05-.44.01-.61.03-.03.05-.07.07-.1.18-.28.31-.56.43-.94.07-.21.1-.35.08-.49.36-.4.61-.97.76-1.41.1-.27.14-.43.11-.6.19-.21.37-.48.51-.71l.04-.06c.14-.22.4-.62.38-1.05.01,0,.02-.01.03-.02.06-.04.13-.08.19-.13.19-.14.39-.32.53-.5.24-.3.52-.69.65-1.04.42-.2.85-.48,1.13-1.01l.05-.08c.07-.13.14-.25.15-.41.34-.28.6-.71.67-.81l.04-.06c.18-.3.4-.66.47-1.08,0-.04,0-.07,0-.11v-.16Zm-6.48-5.09s.01,0,.02,0c-.02,0-.04,0-.06,0,.01,0,.03,0,.04,0Zm-24.63,0s.01,0,.02,0c.06,0,.14.02.21.03-.08-.01-.16-.03-.23-.03Zm-3.67,5.99s0,0,.02,0c0,0,.01,0,.02,0-.02,0-.02,0-.04,0Zm1.65.57s0,0,.02,0c0,0,.01,0,.01,0-.01,0-.02,0-.03,0Zm1.72.92s.04-.02.06-.02c.02,0,.03,0,.05.01-.04,0-.08,0-.11,0Zm1.48,1.14s.04-.03.08-.03c.01,0,.02,0,.04,0-.05,0-.08,0-.11.03Zm.54-6.29s.02-.02.02-.02c0,0,0,0,0,0,0,0,0,0-.02.02Zm6.89,4.3s.07,0,.11,0c-.05,0-.09,0-.12,0,0,0,0,0,.01,0Zm-1.23-1s.03,0,.05,0c-.06,0-.13,0-.21.01.06-.01.12-.02.17-.02Zm-1.27-1.76s.07.01.11.02c-.03-.01-.07-.02-.11-.02h0Zm-1.49-1.52c.08,0,.15.02.22.06-.08-.04-.15-.06-.24-.05,0,0,.01,0,.02,0Zm-1.71-1.15s.03,0,.05,0c0,0,.02,0,.03,0-.03,0-.05,0-.08,0Zm6.09,19.51c-.02.11-.09.21-.19.26,0,0,0,0,0,0-.1.05-.22.05-.32-.01-1.91-1.09-3.17-2.34-3.85-3.81-.62-1.32-.78-2.95-.44-4.72.02-.11.09-.2.18-.25,0,0,0,0,0,0,.1-.05.21-.05.31,0,1.81.92,3.17,2.28,3.84,3.84.58,1.33.74,2.91.48,4.69Zm.53-17.83s.05-.03.08-.03c.03,0,.06,0,.09.01-.07-.02-.12,0-.17.02Zm4.35-3.3s.01,0,.02,0c-.01,0-.02,0-.03,0,0,0,0,0,.01,0Zm-.75-1.47s.06.02.09.04c-.03-.02-.06-.04-.09-.04h0Zm-1.6,0s.06,0,.1,0c-.04,0-.07,0-.1,0,0,0,0,0,0,0Zm-.78,1.45s.11.02.18.05c-.08-.04-.15-.05-.2-.04,0,0,.01,0,.02,0Zm1.94,20.66c-.08.12-.21.19-.35.19,0,0,0,0,0,0-.14,0-.26-.07-.34-.18-1.28-1.78-1.98-3.59-2.08-5.35-.14-2.05.59-4.28,2.03-6.28.08-.11.2-.17.34-.17,0,0,0,0,0,0,.13,0,.25.06.33.16,1.34,1.74,2.08,3.59,2.14,5.36.08,1.97-.6,4.02-2.07,6.26Zm7.36-17.89s0,0,.01,0c-.03,0-.07,0-.1.01.03,0,.06-.01.08-.01Zm-1.51,1.53s0,0,0,0c-.03,0-.06,0-.1.02.03,0,.06-.02.09-.02Zm-1.3,1.75s.04,0,.07,0c-.03,0-.05,0-.07,0,0,0,0,0,0,0Zm-1.18,1.01s.02,0,.03,0c-.03,0-.07,0-.13,0,.04,0,.08,0,.1,0Zm-1.09-3.77s.06-.01.09-.01c.03,0,.05.02.07.03-.05-.02-.1-.03-.16-.01Zm5.06,14.29c-.68,1.47-1.94,2.72-3.85,3.81-.1.06-.22.06-.32.01,0,0,0,0,0,0-.1-.05-.17-.15-.19-.26-.27-1.78-.11-3.36.48-4.69.67-1.55,2.03-2.91,3.84-3.84.1-.05.21-.05.31,0,0,0,0,0,0,0,.1.05.16.14.18.25.33,1.77.18,3.41-.44,4.72Zm1.51-15.91c.06-.02.11-.05.17-.05.01,0,.02,0,.03,0-.06,0-.13.03-.2.05Zm1.82,7.37s.04,0,.06,0c.03,0,.05.02.07.03-.03-.02-.07-.03-.13-.02Zm1.52-1.13s.02,0,.02,0c0,0,0,0,0,0,0,0-.02,0-.03,0Zm1.61-.88s.1-.03.15-.03c.03,0,.06,0,.09,0-.07-.01-.15,0-.23.02Zm1.78-.6s.02,0,.04,0c.01,0,.02,0,.03,0-.02,0-.05,0-.07,0Z"/>
  <path class="cls-5" d="m493.37,169.41c0-9.78-6.37-18.53-15.58-21.57v-28.64c0-.64-.52-1.15-1.15-1.15s-1.15.52-1.15,1.15c0,2.58-.51,5.11-1.51,7.5-1.76,4.25-5.08,7.55-9.33,9.3-4.24,1.74-8.95,1.73-13.17-.03-3.78-1.57-6.72-4.53-8.28-8.31-.28-.69-.51-1.38-.69-2.09-.1-.39-.4-.7-.78-.82-.38-.12-.8-.03-1.11.25-9.21,8.27-18.95,12.3-29.78,12.3-15.93,0-25.2-5.85-36.73-16.64-1.74-1.63-3.67-3.57-5.9-5.95-.3-.32-.76-.44-1.18-.31-.42.13-.73.49-.8.92-.27,1.65-.64,3.26-1.11,4.77-3.21,10.3-12.62,17.22-23.41,17.22-2.46,0-4.91-.37-7.27-1.11-4.22-1.31-7.78-3.93-10.31-7.55-.19-.27-.48-.45-.8-.49-.32-.05-.65.06-.9.27-2.27,1.98-4.82,3.66-7.51,5-5.07,2.54-10.59,3.83-16.39,3.84-10.99.02-76.91.02-87.91,0-5.8,0-11.32-1.3-16.39-3.84-2.69-1.35-5.24-3.03-7.51-5-.25-.22-.58-.32-.9-.27-.33.04-.62.22-.81.49-2.53,3.63-6.1,6.24-10.31,7.55-2.37.74-4.81,1.11-7.27,1.11-10.79,0-20.2-6.92-23.41-17.22-.47-1.51-.85-3.11-1.11-4.77-.07-.43-.38-.79-.8-.92-.42-.13-.88,0-1.18.31-2.23,2.38-4.16,4.32-5.9,5.95-11.53,10.79-20.8,16.64-36.73,16.64-10.83,0-20.57-4.02-29.78-12.3-.3-.27-.72-.36-1.1-.25-.39.12-.68.43-.78.82-.18.7-.41,1.4-.69,2.09-1.56,3.79-4.5,6.74-8.28,8.31-4.22,1.76-8.93,1.77-13.17.03-4.25-1.75-7.56-5.05-9.33-9.3-1-2.39-1.51-4.91-1.51-7.5,0-.64-.52-1.15-1.15-1.15s-1.15.52-1.15,1.15v28.64c-9.22,3.05-15.58,11.8-15.58,21.57s6.43,18.61,15.73,21.62c-.14,2.01-.14,5.98-.15,13.85v14.74c0,.64.51,1.15,1.15,1.15s1.15-.52,1.15-1.15c0-2.58.51-5.1,1.51-7.49,1.77-4.25,5.08-7.55,9.33-9.3,4.21-1.74,8.93-1.73,13.17.03,3.78,1.58,6.72,4.53,8.28,8.32.28.68.51,1.38.69,2.08.1.39.39.7.78.82.38.13.8.02,1.1-.24,9.21-8.27,18.95-12.3,29.78-12.3,15.93,0,25.2,5.85,36.73,16.64,1.72,1.6,3.7,3.6,5.9,5.95.22.23.53.36.84.36.11,0,.23-.02.34-.05.42-.13.73-.48.8-.92.27-1.65.64-3.25,1.11-4.76,3.21-10.3,12.62-17.22,23.41-17.22,2.45,0,4.9.38,7.27,1.11,4.22,1.32,7.78,3.93,10.31,7.55.19.27.48.45.81.48.32.03.65-.06.9-.27.35-.31.71-.61,1.09-.9,1.98-1.57,4.14-2.96,6.42-4.1,5.08-2.54,10.59-3.83,16.39-3.84,10.99-.02,76.92-.02,87.91,0,5.8,0,11.31,1.3,16.39,3.84,2.28,1.15,4.44,2.53,6.42,4.1.37.29.73.59,1.09.9.25.21.58.3.9.27.32-.04.62-.22.8-.48,2.53-3.62,6.09-6.24,10.31-7.55,2.37-.74,4.82-1.11,7.27-1.11,10.79,0,20.2,6.92,23.41,17.22.47,1.51.85,3.11,1.11,4.76.07.43.38.79.8.92.11.04.22.05.34.05.31,0,.62-.13.84-.36,2.2-2.34,4.18-4.34,5.9-5.95,11.53-10.79,20.8-16.64,36.73-16.64,10.83,0,20.57,4.02,29.78,12.3.3.27.72.37,1.11.24.39-.12.68-.43.78-.82.18-.71.41-1.4.69-2.08,1.55-3.79,4.49-6.75,8.28-8.32,4.24-1.76,8.96-1.77,13.17-.03,4.25,1.75,7.56,5.05,9.33,9.3,1,2.39,1.51,4.91,1.51,7.49,0,.64.52,1.15,1.15,1.15s1.15-.52,1.15-1.15v-14.74c0-7.87,0-11.84-.15-13.85,9.3-3.01,15.73-11.79,15.73-21.62Z"/>
  <g>
    <path d="m51.56,169.85c.21-.17.34-.42.34-.69,0,0,0,0,0-.01,0-.27-.14-.53-.36-.69-4.12-2.98-8.72-4.47-12.94-4.19-3.64.21-7.35,1.66-11.03,4.29-.23.16-.36.43-.36.71,0,0,0,.01,0,.02,0,.29.15.55.39.71,4.62,3.03,8.84,4.42,12.91,4.26,3.65-.11,7.48-1.63,11.06-4.4Z"/>
    <path d="m457.54,169.85c-.21-.17-.34-.42-.34-.69,0,0,0,0,0-.01,0-.27.14-.53.36-.69,4.12-2.98,8.72-4.47,12.94-4.19,3.64.21,7.35,1.66,11.03,4.29.23.16.36.43.36.71,0,0,0,.01,0,.02,0,.29-.15.55-.39.71-4.62,3.03-8.84,4.42-12.91,4.26-3.65-.11-7.48-1.63-11.06-4.4Z"/>
  </g>
  <g>
    <path class="cls-3" d="m54.36,153.59h20.56c2,0,3.78.24,5.36.72,1.57.48,2.9,1.12,3.97,1.92,1.08.8,1.9,1.73,2.47,2.79.57,1.06.86,2.16.86,3.31,0,1.05-.14,1.98-.42,2.77-.28.79-.69,1.5-1.23,2.11-.54.62-1.2,1.16-1.99,1.63-.79.47-1.68.9-2.69,1.28.87.36,1.64.9,2.31,1.63s1.17,1.68,1.51,2.84l1.31,4.04h3.2l.05,6.05h-11.28l-1.54-7.38c-.15-.88-.39-1.63-.7-2.27-.32-.64-.74-1.16-1.27-1.56-.53-.4-1.18-.7-1.94-.89-.76-.19-1.66-.29-2.7-.29h-3.31v6.77h3.56v5.62h-16.1v-5.62h4.02v-19.83h-4.02v-5.64Zm12.54,5.64v7.53h5.1c.97,0,1.85-.07,2.63-.21.78-.14,1.44-.37,2-.68.56-.31.98-.69,1.28-1.16.3-.46.45-1.02.45-1.66,0-1.2-.54-2.14-1.61-2.81s-2.66-1-4.74-1h-5.1Z"/>
    <path class="cls-3" d="m109.33,185.24c-1.76,0-3.44-.19-5.05-.57-1.61-.38-3.11-.92-4.5-1.62-1.39-.7-2.66-1.53-3.79-2.51-1.14-.98-2.11-2.06-2.91-3.26-.8-1.2-1.43-2.48-1.87-3.84-.44-1.37-.67-2.8-.67-4.29s.22-2.92.67-4.3c.44-1.37,1.07-2.66,1.87-3.86.8-1.2,1.77-2.28,2.91-3.26,1.14-.98,2.4-1.82,3.79-2.51,1.39-.7,2.89-1.24,4.5-1.62,1.61-.38,3.29-.57,5.05-.57s3.45.19,5.06.57c1.62.38,3.12.92,4.51,1.62,1.39.7,2.66,1.54,3.79,2.51,1.14.98,2.11,2.06,2.92,3.26.81,1.2,1.44,2.48,1.88,3.86.44,1.38.67,2.81.67,4.3s-.22,2.9-.67,4.28c-.44,1.38-1.07,2.66-1.88,3.86-.81,1.2-1.79,2.28-2.92,3.26-1.14.98-2.4,1.81-3.79,2.51-1.39.7-2.9,1.24-4.51,1.62-1.61.38-3.3.57-5.06.57Zm0-6.44c1.49,0,2.85-.26,4.09-.77,1.24-.51,2.3-1.21,3.19-2.09.89-.88,1.58-1.91,2.06-3.08.49-1.17.73-2.41.73-3.72s-.25-2.58-.74-3.75c-.5-1.18-1.19-2.2-2.09-3.09-.9-.88-1.96-1.58-3.19-2.09-1.23-.51-2.58-.77-4.05-.77s-2.82.26-4.05.77c-1.23.51-2.29,1.21-3.18,2.09-.89.88-1.58,1.91-2.09,3.09-.5,1.18-.76,2.43-.76,3.75s.25,2.55.76,3.72c.5,1.17,1.2,2.19,2.09,3.08.89.88,1.95,1.58,3.18,2.09,1.23.51,2.58.77,4.05.77Z"/>
    <path class="cls-3" d="m129.33,153.59h16.64v5.64h-4.1v19.83h8.46c.22,0,.44-.05.65-.15.21-.1.4-.24.56-.4.16-.16.29-.34.4-.53s.15-.38.15-.55v-4.16h8.31v11.42h-31.07v-5.62h4.02v-19.83h-4.02v-5.64Z"/>
    <path class="cls-3" d="m163.05,153.59h16.64v5.64h-4.1v19.83h8.46c.22,0,.44-.05.65-.15.21-.1.4-.24.56-.4.16-.16.29-.34.4-.53s.15-.38.15-.55v-4.16h8.31v11.42h-31.07v-5.62h4.02v-19.83h-4.02v-5.64Z"/>
    <path class="cls-3" d="m196.76,153.59h16.64v5.62h-4.1v19.85h4.1v5.62h-16.64v-5.62h4.02v-19.85h-4.02v-5.62Z"/>
    <path class="cls-3" d="m240.77,153.59h14.77v5.64h-3.15v25.45h-8.51l-16.18-20.1v14.48h3.26v5.62h-14.74v-5.62h3.2v-19.83h-3.15v-5.64h11.74l16.07,20.36v-14.72h-3.31v-5.64Z"/>
    <path class="cls-3" d="m297.98,184.69v-5.24c-1.04,1.47-2.06,2.54-3.05,3.23-.99.69-2.11,1.24-3.37,1.65s-2.93.62-5.03.6c-1.04-.01-2.08-.11-3.13-.29-1.04-.18-2.05-.44-3.02-.77s-1.93-.73-2.86-1.19c-.93-.46-1.78-1-2.53-1.6-1.87-1.51-3.31-3.25-4.35-5.23s-1.55-4.14-1.55-6.48c0-1.44.22-2.83.66-4.17s1.05-2.6,1.84-3.77,1.74-2.23,2.86-3.2c1.12-.96,2.36-1.79,3.73-2.47,1.37-.69,2.84-1.22,4.42-1.59s3.23-.56,4.97-.56c1.98,0,3.7.21,5.17.64,1.46.42,3.03,1.21,4.71,2.37h5.65v6.82h-7.79c-.77-.95-1.5-1.65-2.18-2.08s-1.42-.79-2.22-1.07c-.8-.28-1.91-.42-3.34-.42s-2.72.26-3.93.77-2.26,1.2-3.14,2.07c-.88.87-1.58,1.89-2.08,3.07-.5,1.18-.76,2.38-.76,3.62s.23,2.39.68,3.49c.45,1.1,1.14,2.09,2.07,2.97.92.88,2,1.56,3.23,2.03,1.23.47,2.54.71,3.93.71,1.78,0,3.33-.42,4.66-1.25,1.33-.83,2.29-1.97,2.87-3.41h-7.28v-5.53h17.7v16.31h-7.54Z"/>
    <path class="cls-3" d="m308.99,153.59h20.56c2,0,3.79.24,5.36.72s2.9,1.12,3.97,1.92c1.08.8,1.9,1.73,2.47,2.79.57,1.06.86,2.16.86,3.31,0,1.05-.14,1.98-.42,2.77s-.69,1.5-1.23,2.11-1.2,1.16-1.99,1.63c-.79.47-1.68.9-2.69,1.28.87.36,1.64.9,2.31,1.63s1.17,1.68,1.51,2.84l1.31,4.04h3.21l.05,6.05h-11.28l-1.54-7.38c-.15-.88-.39-1.63-.71-2.27-.32-.64-.74-1.16-1.27-1.56-.53-.4-1.17-.7-1.94-.89s-1.66-.29-2.7-.29h-3.31v6.77h3.56v5.62h-16.1v-5.62h4.03v-19.83h-4.03v-5.64Zm12.54,5.64v7.53h5.1c.97,0,1.85-.07,2.63-.21.78-.14,1.44-.37,2-.68.56-.31.98-.69,1.28-1.16.3-.46.45-1.02.45-1.66,0-1.2-.54-2.14-1.62-2.81-1.08-.67-2.66-1-4.74-1h-5.1Z"/>
    <path class="cls-3" d="m346.9,153.59h30.92v10.6h-8.36v-4.41h-9.97v6.13h7.72v5.95h-7.72v7.2h9.97v-5.52h8.36v11.14h-30.92v-5.62h4.08v-19.28h-4.08v-6.19Z"/>
    <path class="cls-3" d="m380.97,153.59h30.92v10.6h-8.36v-4.41h-9.97v6.13h7.72v5.95h-7.72v7.2h9.97v-5.52h8.36v11.14h-30.92v-5.62h4.08v-19.28h-4.08v-6.19Z"/>
    <path class="cls-3" d="m439.59,153.59h14.77v5.64h-3.15v25.45h-8.51l-16.18-20.1v14.48h3.26v5.62h-14.74v-5.62h3.21v-19.83h-3.15v-5.64h11.74l16.07,20.36v-14.72h-3.31v-5.64Z"/>
  </g>
  <rect class="cls-1" x="259.17" y="155.25" width="2.69" height="5.64" transform="translate(521.03 316.14) rotate(180)"/>
</svg>