<?xml version="1.0" encoding="utf-8"?>
<!-- Generator: Adobe Illustrator 27.9.0, SVG Export Plug-In . SVG Version: 6.00 Build 0)  -->
<svg version="1.1" id="Layer_1" xmlns="http://www.w3.org/2000/svg" xmlns:xlink="http://www.w3.org/1999/xlink" x="0px" y="0px"
	 viewBox="0 0 792 612" style="enable-background:new 0 0 792 612;" xml:space="preserve">
<style type="text/css">
	.st0{fill:#E93631;}
	.st1{fill:#8AC340;}
</style>
<g>
	<g>
		<path class="st0" d="M525.47,275.61c-17.25-20.99-34.69-35.46-51.56-49.46c-26.09-21.65-48.62-40.34-60.96-76.93
			c-0.64-1.88-2.4-3.14-4.38-3.14c-1.98,0-3.74,1.26-4.38,3.14c-12.34,36.57-34.87,55.27-60.96,76.92
			c-16.87,14-34.31,28.47-51.57,49.46c-17.03,20.7-23.6,44.41-18.52,66.75c4.68,20.58,18.68,38.08,37.44,46.8
			c9.4,4.37,20.49,6.67,32.07,6.67c20.09,0,37.97-6.84,48.98-18.5c-7.99,44.8-30.46,76.99-47.31,79.4c-2.39,0.34-4.13,2.49-3.96,4.9
			c0.17,2.41,2.19,4.3,4.61,4.3h127.2c2.42,0,4.44-1.89,4.61-4.3c0.17-2.4-1.57-4.56-3.96-4.9c-16.86-2.41-39.33-34.59-47.32-79.4
			c11.01,11.66,28.89,18.5,48.98,18.5c11.58,0,22.67-2.31,32.07-6.67c18.76-8.72,32.75-26.21,37.43-46.8
			C549.08,320.02,542.5,296.31,525.47,275.61z M413.46,346.28c0.15,43.3,17.51,90.58,40.06,110.4h-89.91
			c22.56-19.83,39.91-67.1,40.06-110.41c-0.01-2.48-1.97-4.29-4.71-4.32c-2.44,0.06-4.52,2.29-4.53,4.87
			c-0.21,27.32-26.99,39.76-51.79,39.77c-10.23,0-19.98-2.01-28.17-5.81c-15.95-7.42-28.33-22.93-32.32-40.47
			c-3.14-13.79-2.8-35.19,16.65-58.82c16.67-20.27,33.74-34.44,50.37-48.25c24.49-20.33,45.75-37.98,59.4-69.61
			c13.65,31.63,34.91,49.28,59.51,69.7c16.51,13.71,33.59,27.88,50.25,48.16c19.44,23.63,19.79,45.03,16.65,58.82h0
			c-3.99,17.54-16.37,33.05-32.32,40.47c-8.2,3.8-17.94,5.81-28.17,5.81c-24.79,0-51.57-12.45-51.78-39.76
			c-0.01-2.59-2.09-4.82-4.58-4.88C415.43,341.97,413.47,343.79,413.46,346.28z"/>
	</g>
	<path class="st1" d="M460.22,259.28c-0.04-0.55-0.39-1.02-0.89-1.21c-0.17-0.07-0.35-0.11-0.54-0.11c-0.05,0-0.09,0-0.14,0.01
		c-0.21,0.02-0.41,0.09-0.58,0.2c-0.06,0.03-0.11,0.06-0.16,0.09c-0.17,0.11-0.25,0.19-0.35,0.29c-0.66,0.65-1.09,0.9-2,1.41
		c-0.36,0.2-0.89,0.34-1.45,0.48c-0.23,0.06-0.45,0.12-0.68,0.19c-0.26-0.16-0.53-0.23-0.72-0.25c-0.06-0.01-0.22-0.02-0.28-0.02
		c-0.44,0-0.82,0.13-1.07,0.22c-1.14,0.39-2.07,0.87-2.88,1.49c-0.06-0.02-0.13-0.04-0.2-0.05c-0.17-0.04-0.35-0.05-0.53-0.05
		c-1.77,0-3.69,1.72-4.22,2.33l-0.11,0.12l-0.11,0.12c-0.13-0.03-0.26-0.04-0.4-0.04c-1.06,0-1.98,0.77-2.75,1.52
		c-0.42,0.4-0.84,0.87-1.19,1.32c-0.08,0.1-0.16,0.21-0.23,0.33c-0.17,0-0.33,0.02-0.5,0.07c-0.12,0.03-0.23,0.07-0.34,0.12
		c0.2-0.66,0.31-1.39,0.29-2.21c-0.02-0.65-0.2-1.1-0.46-1.43c0.2-0.41,0.37-0.85,0.57-1.51c0.4-1.32,0.36-2.34-0.12-3.12
		c-0.04-0.06-0.08-0.13-0.13-0.19c0.02-0.04,0.04-0.08,0.06-0.12c0.53-1.22,0.8-2.25,0.83-3.14c0.02-0.54-0.07-0.94-0.22-1.27
		c0.44-0.77,0.98-2.05,0.35-3.4c0.04-0.07,0.08-0.14,0.13-0.22c0.67-1.23,0.8-1.43,1.56-2.57c0.16-0.23,0.36-0.43,0.6-0.66
		c0.25-0.24,0.49-0.47,0.72-0.75c0.1-0.12,0.25-0.2,0.51-0.33c0.32-0.16,0.73-0.37,1.09-0.75c0.53-0.56,0.51-1.44-0.05-1.98
		c-0.38-0.36-0.89-0.54-1.52-0.54c-1.21,0-2.97,0.72-4.37,1.35c-1.44,0.64-2.3,1.21-3.22,2c-0.11-0.02-0.22-0.04-0.35-0.05
		c-0.04,0-0.17-0.01-0.21-0.01c-1.79,0-3.58,2.03-4.13,2.96c-0.05,0.08-0.1,0.18-0.15,0.28c-0.1-0.01-0.21-0.02-0.31-0.02
		c-0.55,0-1.08,0.17-1.62,0.52c-0.71,0.47-1.07,0.92-1.47,1.44c-0.68,0.87-0.97,1.66-1.18,2.31c-0.54,0.01-1.06,0.2-1.59,0.59
		c-1.65,1.21-2.31,2.82-2.61,4.39c-0.35,0.11-0.64,0.31-0.89,0.49c-0.21,0.16-0.42,0.38-0.64,0.65c-0.02-0.15-0.04-0.31-0.07-0.48
		l-0.06-0.38c-0.11-0.73-0.28-1.93-1.19-2.62c0.08-0.6,0.17-1.41-0.09-2.59c-0.12-0.56-0.45-2-1.49-2.61
		c-0.02-0.39-0.13-0.77-0.47-1.81l-0.09-0.3c-0.15-0.5-0.35-1.18-0.86-1.75c0.04-1.06-0.07-1.69-0.34-2.83
		c-0.39-1.58-1.09-2.27-1.73-2.56c-0.04-0.59-0.14-1.23-0.44-1.86l-0.11-0.24c-0.25-0.56-0.65-1.47-1.41-1.92
		c-0.12-1.08-0.33-1.95-0.55-2.84c-0.1-0.42-0.21-0.86-0.31-1.35c-0.09-0.4-0.15-0.8-0.21-1.2c-0.07-0.45-0.14-0.89-0.24-1.34
		c-0.06-0.3-0.09-0.61-0.12-0.91c-0.05-0.59-0.11-1.26-0.37-1.92c-0.2-0.5-0.67-0.84-1.2-0.88c-0.03,0-0.06,0-0.1,0
		c-0.12,0-0.25,0.02-0.36,0.05c-0.08,0-0.16,0.01-0.24,0.02c-0.43,0.08-0.8,0.36-1,0.76c-0.29,0.6-0.36,1.32-0.42,2.02
		c-0.03,0.31-0.05,0.61-0.11,0.87c-0.09,0.44-0.17,0.89-0.24,1.33c-0.06,0.4-0.13,0.8-0.21,1.2c-0.1,0.49-0.21,0.93-0.31,1.34
		c-0.22,0.9-0.42,1.76-0.54,2.84c-0.36,0.19-0.65,0.5-0.9,0.93c-0.13,0.22-0.26,0.51-0.39,0.78l-0.17,0.35
		c-0.34,0.68-0.45,1.33-0.49,1.94c-0.67,0.3-1,0.93-1.17,1.25c-0.03,0.06-0.06,0.12-0.1,0.18c-0.16,0.17-0.24,0.35-0.29,0.58
		l-0.14,0.56c-0.25,1-0.4,1.63-0.37,2.83c-0.23,0.24-0.4,0.53-0.57,0.94c-0.11,0.27-0.24,0.68-0.34,1.01l-0.06,0.2
		c-0.32,1.01-0.44,1.4-0.46,1.76c-0.72,0.43-1.22,1.33-1.49,2.69c-0.22,1.08-0.16,1.81-0.09,2.5c-0.36,0.25-0.6,0.6-0.83,1.17
		c-0.22,0.52-0.29,1.04-0.36,1.5l-0.05,0.34c-0.03,0.17-0.05,0.33-0.07,0.48c-0.34-0.45-0.82-0.91-1.53-1.11
		c-0.15-0.9-0.38-1.84-1.19-2.96c-0.34-0.47-0.96-1.14-1.48-1.5c-0.35-0.25-0.84-0.53-1.5-0.56c-0.24-0.69-0.58-1.53-1.22-2.32
		c-0.58-0.72-1.54-1.93-3.05-1.93c-0.11,0-0.23,0.01-0.34,0.02c-0.07-0.13-0.13-0.24-0.19-0.35c-0.35-0.58-2.16-2.91-4.1-2.91
		c-0.11,0-0.22,0.01-0.33,0.02c-0.07,0.01-0.14,0.02-0.2,0.04c-0.78-0.71-1.44-1.2-2.97-1.88l-0.15-0.07
		c-1.54-0.69-3.29-1.42-4.61-1.42c-0.11,0-0.27,0.01-0.38,0.04c-0.44,0.08-0.71,0.23-1.02,0.52c-0.56,0.53-0.58,1.42-0.05,1.97
		c0.33,0.35,0.75,0.55,1.08,0.72l0.19,0.1c0.1,0.05,0.16,0.08,0.22,0.12c0.03,0.03,0.08,0.09,0.15,0.18
		c0.25,0.31,0.43,0.46,0.64,0.64c0.07,0.06,0.14,0.11,0.23,0.2c0.22,0.21,0.4,0.5,0.62,0.83c0.14,0.21,0.27,0.42,0.42,0.63
		c0.27,0.37,0.45,0.71,0.66,1.08c0.13,0.23,0.26,0.48,0.42,0.74c-0.05,0.12-0.1,0.26-0.14,0.41c-0.37,1.29,0.06,2.34,0.47,3.04
		c-0.11,0.25-0.18,0.55-0.2,0.93c-0.03,0.46,0.04,0.99,0.22,1.68c0.07,0.27,0.23,0.71,0.38,1.13c0.11,0.3,0.23,0.6,0.27,0.77
		c-0.21,0.26-0.38,0.61-0.46,1.08c-0.17,0.99,0.04,1.69,0.21,2.26c0.23,0.78,0.37,1.18,0.55,1.53c-0.26,0.34-0.44,0.83-0.44,1.51
		c0,0.82,0.1,1.51,0.27,2.1c-0.16-0.07-0.32-0.12-0.49-0.15c-0.07-0.01-0.24-0.03-0.32-0.03c-0.62-0.86-2.45-3.15-4.19-3.15
		c-0.13,0-0.25,0.01-0.38,0.03c-0.74-0.83-1.95-1.94-3.4-2.38c-0.46-0.14-0.83-0.21-1.15-0.21c-0.2,0-0.42,0.02-0.63,0.09
		c-0.86-0.69-1.71-1.07-2.83-1.45c-0.48-0.16-0.84-0.24-1.17-0.24c-0.26,0-0.62,0.05-0.96,0.26c-0.24-0.07-0.46-0.13-0.68-0.18
		c-0.83-0.21-1.54-0.39-2.75-1.24c-0.25-0.17-0.4-0.33-0.52-0.46c-0.2-0.21-0.46-0.47-0.85-0.67c-0.2-0.1-0.41-0.15-0.63-0.15
		c-0.23,0-0.47,0.06-0.68,0.17c-0.4,0.22-0.67,0.63-0.72,1.09c-0.2,2.11,1.95,4.92,2.54,5.56c0.01,0.01,0.33,0.36,0.75,0.71
		c0.03,0.47,0.2,0.82,0.41,1.19l0.13,0.23c0.78,1.46,1.98,2.26,3.15,2.81c0.37,1,1.15,2.1,1.83,2.92c0.65,0.8,1.32,1.26,1.85,1.62
		c0.09,0.06,0.18,0.12,0.26,0.18c-0.05,1.22,0.69,2.38,1.1,3.01l0.11,0.17c0.51,0.81,0.98,1.46,1.4,1.93c-0.01,0.2,0,0.42,0.04,0.68
		c0.23,1.37,1.29,3.62,2.42,4.94c-0.05,0.45,0.04,0.82,0.21,1.34l1.39-0.26l-1.33,0.42c0.14,0.44,0.29,0.9,0.49,1.34
		c0.27,0.58,0.6,1.05,0.88,1.43c-0.12,0.47-0.11,1.06,0.03,1.75c0.21,1.01,0.52,1.61,0.77,2.09c0.15,0.3,0.27,0.53,0.37,0.83
		c0.5,1.24,1.37,3.43,1.96,5.61c0.04,0.16,0.11,0.3,0.2,0.43c0.1,0.38,0.21,0.94,0.26,1.42c0,0.01,0.01,0.17,0.01,0.18
		c0.09,0.59,0.14,1.06,0.15,1.45c-0.02,0.02-0.05,0.04-0.07,0.06c-0.14,0.12-0.27,0.23-0.37,0.33c-0.89,0.86-1.88,1.94-2.4,3.38
		c-0.33,0.92-0.73,2.31-0.27,3.69c1,3.02,2.88,4.35,5.79,5.62c5.16,2.25,10.71,3.23,15.96,4.03c3.18,0.49,9.14,0.83,12.5,0.83
		c3.39,0,9.38-0.34,12.56-0.84c3.59-0.56,7.41-1.22,11-2.25c3.44-1,7.88-2.66,9.44-4.93c1.07-1.56,2.03-3.32,0.96-6.21
		c-0.53-1.44-1.75-2.72-2.42-3.36c-0.09-0.09-0.21-0.19-0.33-0.29c-0.02-0.02-0.05-0.04-0.07-0.06c0.01-0.39,0.06-0.84,0.15-1.36
		c0.01-0.06,0.02-0.19,0.02-0.24c0.05-0.5,0.16-1.09,0.27-1.46c0.08-0.12,0.15-0.25,0.19-0.4c0.58-2.11,1.41-4.25,1.85-5.33
		c0.03-0.08,0.06-0.16,0.07-0.24c0.06-0.27,0.18-0.49,0.35-0.81c0.27-0.49,0.63-1.17,0.83-2.17c0.14-0.67,0.15-1.23,0.04-1.69
		c0.07-0.09,0.14-0.19,0.21-0.29c0.51-0.79,0.87-1.57,1.2-2.63c0.18-0.59,0.27-0.97,0.23-1.37c1-1.12,1.7-2.71,2.13-3.95
		c0.27-0.77,0.39-1.2,0.32-1.68c0.52-0.59,1.04-1.34,1.44-1.99l0.11-0.17c0.4-0.62,1.11-1.75,1.07-2.94
		c0.03-0.02,0.06-0.04,0.09-0.06c0.18-0.12,0.36-0.24,0.53-0.36c0.54-0.39,1.08-0.9,1.49-1.4c0.67-0.83,1.46-1.92,1.83-2.92
		c1.17-0.55,2.37-1.35,3.15-2.81l0.13-0.23c0.21-0.36,0.38-0.7,0.41-1.16c0.94-0.79,1.69-1.97,1.87-2.27l0.1-0.17
		c0.5-0.83,1.13-1.85,1.31-3.03c0.02-0.1,0.02-0.21,0.01-0.31L460.22,259.28z M442.09,245.05c0.02,0,0.03,0.01,0.05,0.02
		c-0.05,0-0.11,0-0.17,0C442.01,245.07,442.05,245.05,442.09,245.05z M373.21,245.04c0.02,0,0.03,0,0.05,0
		c0.17,0,0.39,0.05,0.59,0.09C373.62,245.09,373.39,245.03,373.21,245.04z M362.94,261.79c0.03,0,0.02-0.03,0.05-0.03
		c0.01,0,0.04,0.01,0.05,0.01C363,261.76,362.98,261.78,362.94,261.79z M367.57,263.39c0.03,0,0.03-0.03,0.05-0.03
		c0.01,0,0.03,0.01,0.04,0.01C367.62,263.37,367.6,263.38,367.57,263.39z M372.38,265.96c0.06-0.02,0.11-0.05,0.17-0.05
		c0.04,0,0.1,0.02,0.14,0.03C372.58,265.93,372.48,265.94,372.38,265.96z M376.51,269.15c0.06-0.04,0.12-0.08,0.21-0.08
		c0.03,0,0.07,0,0.11,0.01C376.69,269.05,376.6,269.1,376.51,269.15z M378.02,251.54c0.03-0.04,0.05-0.05,0.05-0.05c0,0,0,0,0,0
		C378.07,251.5,378.06,251.49,378.02,251.54z M397.29,263.56c0.09,0,0.19,0.01,0.31,0.02c-0.14-0.02-0.24-0.02-0.34-0.01
		C397.27,263.57,397.27,263.56,397.29,263.56z M393.86,260.75c0.05,0,0.08,0.02,0.13,0.02c-0.18-0.02-0.36-0.02-0.6,0.04
		C393.56,260.77,393.72,260.75,393.86,260.75z M390.3,255.82c0.11,0,0.21,0.03,0.3,0.06C390.51,255.86,390.41,255.82,390.3,255.82
		C390.3,255.82,390.3,255.82,390.3,255.82z M386.14,251.57c0.22,0,0.42,0.07,0.62,0.16c-0.21-0.1-0.43-0.16-0.67-0.15
		C386.11,251.58,386.13,251.57,386.14,251.57z M381.37,248.35c0.05-0.01,0.09-0.01,0.14-0.01c0.02,0,0.05,0.02,0.07,0.02
		C381.51,248.36,381.44,248.34,381.37,248.35z M398.41,302.91c-0.05,0.31-0.24,0.58-0.52,0.72c-0.01,0-0.01,0.01-0.02,0.01
		c-0.29,0.14-0.63,0.13-0.91-0.03c-5.35-3.05-8.87-6.54-10.78-10.66c-1.74-3.68-2.17-8.25-1.24-13.21c0.06-0.3,0.25-0.55,0.51-0.69
		c0,0,0.01,0,0.01-0.01c0.28-0.14,0.6-0.13,0.87,0.01c5.05,2.58,8.86,6.39,10.73,10.73C398.71,293.51,399.16,297.93,398.41,302.91z
		 M399.9,253.05c0.07-0.02,0.13-0.08,0.22-0.08c0.08,0,0.16,0.01,0.25,0.03C400.18,252.96,400.04,253,399.9,253.05z M412.07,243.83
		c0.02,0,0.03,0.02,0.05,0.02c-0.03,0-0.06-0.01-0.09-0.01C412.05,243.84,412.06,243.83,412.07,243.83z M409.98,239.72
		c0.1,0,0.17,0.06,0.26,0.11C410.16,239.78,410.08,239.72,409.98,239.72C409.98,239.72,409.98,239.72,409.98,239.72z M405.5,239.75
		c0.08,0,0.17,0,0.27,0.01c-0.11-0.01-0.2-0.01-0.29-0.01C405.49,239.75,405.5,239.75,405.5,239.75z M403.33,243.8
		c0.14,0,0.3,0.04,0.5,0.14c-0.24-0.12-0.41-0.14-0.57-0.12C403.29,243.82,403.3,243.8,403.33,243.8z M408.76,301.59
		c-0.21,0.33-0.57,0.53-0.97,0.53c-0.01,0-0.02,0-0.02,0c-0.38,0-0.74-0.18-0.96-0.49c-3.58-4.99-5.53-10.03-5.82-14.96
		c-0.38-5.74,1.64-11.97,5.69-17.56c0.22-0.3,0.57-0.48,0.94-0.49c0.01,0,0.01,0,0.02,0c0.37,0,0.71,0.17,0.94,0.46
		c3.76,4.86,5.82,10.05,5.97,15C414.76,289.6,412.87,295.33,408.76,301.59z M429.34,251.55c0.01,0,0.03,0.01,0.04,0.01
		c-0.09,0-0.18,0.01-0.28,0.03C429.19,251.58,429.27,251.55,429.34,251.55z M425.11,255.84
		C425.11,255.84,425.11,255.84,425.11,255.84c-0.08,0-0.17,0.03-0.26,0.05C424.93,255.87,425.02,255.84,425.11,255.84z
		 M421.46,260.72c0.05,0,0.12,0.01,0.19,0.02c-0.07-0.01-0.14-0.02-0.2-0.02C421.45,260.72,421.45,260.72,421.46,260.72z
		 M418.15,263.56c0.03,0,0.05,0.01,0.07,0.01c-0.1-0.01-0.21-0.01-0.37,0.01C417.98,263.57,418.07,263.56,418.15,263.56z
		 M415.09,253c0.09-0.02,0.17-0.04,0.25-0.04c0.08,0,0.14,0.05,0.21,0.08C415.41,253,415.28,252.96,415.09,253z M429.26,292.96
		c-1.9,4.12-5.43,7.6-10.78,10.66c-0.28,0.16-0.62,0.17-0.91,0.03c-0.01,0-0.01-0.01-0.02-0.01c-0.28-0.14-0.47-0.41-0.52-0.72
		c-0.75-4.99-0.3-9.41,1.33-13.13c1.87-4.34,5.68-8.15,10.73-10.73c0.27-0.14,0.6-0.14,0.87-0.01c0,0,0.01,0,0.01,0.01
		c0.27,0.14,0.46,0.39,0.51,0.69C431.43,284.71,431,289.28,429.26,292.96z M433.48,248.47c0.16-0.05,0.32-0.14,0.46-0.14
		c0.03,0,0.06,0,0.09,0C433.86,248.33,433.66,248.41,433.48,248.47z M438.57,269.09c0.06-0.02,0.11-0.02,0.16-0.02
		c0.08,0,0.13,0.04,0.19,0.08C438.84,269.09,438.74,269.05,438.57,269.09z M442.83,265.92c0.02,0,0.05-0.02,0.07-0.02
		c0.01,0,0.01,0.01,0.02,0.01C442.89,265.9,442.86,265.92,442.83,265.92z M447.34,263.46c0.14-0.03,0.28-0.09,0.41-0.09
		c0.09,0,0.17,0.01,0.25,0.02C447.8,263.35,447.57,263.4,447.34,263.46z M452.32,261.78c0.04,0,0.07-0.02,0.1-0.02
		c0.03,0,0.06,0,0.1,0.01C452.45,261.76,452.38,261.78,452.32,261.78z"/>
</g>
</svg>
